<?xml version="1.0" standalone="no"?>
<!DOCTYPE svg PUBLIC "-//W3C//DTD SVG 20010904//EN"
 "http://www.w3.org/TR/2001/REC-SVG-20010904/DTD/svg10.dtd">
<svg version="1.0" xmlns="http://www.w3.org/2000/svg"
 width="3240.000000pt" height="3240.000000pt" viewBox="0 0 3240.000000 3240.000000"
 preserveAspectRatio="xMidYMid meet">

<g transform="translate(0.000000,3240.000000) scale(0.100000,-0.100000)"
fill="#000000" stroke="none">
<path d="M14120 30783 c-8 -3 -17 -9 -20 -13 -6 -9 -246 -30 -346 -30 -50 0
-90 -6 -124 -20 -29 -11 -76 -20 -108 -21 -57 0 -113 -9 -187 -28 -22 -6 -80
-13 -130 -17 -49 -3 -119 -15 -154 -25 -35 -10 -90 -19 -122 -19 -33 0 -84 -9
-114 -19 -30 -11 -85 -23 -122 -26 -38 -4 -85 -16 -105 -26 -21 -11 -49 -19
-63 -19 -14 0 -51 -9 -82 -20 -32 -11 -88 -24 -124 -29 -37 -5 -78 -15 -90
-22 -13 -7 -49 -16 -81 -20 -31 -4 -71 -14 -90 -23 -18 -10 -55 -20 -83 -23
-27 -3 -62 -14 -77 -24 -14 -11 -35 -19 -45 -19 -10 0 -36 -9 -57 -20 -21 -10
-59 -22 -85 -26 -25 -3 -60 -15 -77 -25 -17 -11 -47 -19 -66 -19 -20 0 -46 -9
-60 -19 -13 -11 -38 -23 -54 -27 -16 -4 -46 -15 -66 -25 -21 -11 -46 -19 -57
-19 -10 0 -43 -11 -73 -25 -29 -14 -63 -25 -75 -25 -12 0 -28 -7 -37 -15 -8
-9 -36 -19 -61 -24 -25 -5 -56 -18 -69 -30 -12 -11 -29 -21 -37 -21 -8 0 -31
-9 -52 -20 -20 -11 -45 -20 -56 -20 -10 0 -29 -8 -42 -19 -13 -10 -38 -21 -55
-25 -17 -4 -46 -18 -65 -32 -18 -13 -38 -24 -45 -24 -6 0 -17 -6 -23 -14 -6
-8 -33 -19 -59 -26 -26 -6 -54 -17 -62 -24 -8 -7 -34 -18 -57 -25 -24 -6 -43
-16 -43 -21 0 -4 -13 -11 -29 -15 -16 -3 -35 -13 -42 -22 -8 -8 -49 -33 -94
-55 -44 -22 -91 -46 -105 -54 -14 -7 -32 -14 -41 -14 -9 0 -24 -9 -34 -20 -10
-11 -24 -20 -30 -20 -7 0 -18 -7 -26 -16 -12 -15 -36 -29 -124 -73 -22 -11
-58 -34 -80 -50 -22 -17 -51 -35 -65 -41 -13 -6 -27 -15 -30 -19 -5 -6 -37
-26 -115 -71 -16 -9 -59 -38 -95 -64 -57 -41 -153 -107 -228 -158 -14 -9 -28
-20 -31 -25 -8 -11 -89 -63 -98 -63 -5 0 -43 -32 -86 -70 -43 -39 -83 -70 -90
-70 -7 0 -39 -26 -72 -56 -33 -31 -87 -76 -120 -101 -33 -25 -85 -68 -115 -96
-31 -29 -87 -79 -125 -112 -39 -33 -108 -97 -155 -143 -47 -45 -92 -84 -100
-87 -8 -3 -26 -21 -40 -40 -14 -18 -44 -49 -67 -67 -23 -18 -45 -40 -50 -49
-4 -9 -45 -57 -89 -105 -45 -49 -104 -114 -130 -145 -27 -31 -78 -89 -114
-129 -36 -40 -69 -82 -73 -93 -4 -12 -16 -29 -25 -38 -48 -48 -108 -122 -153
-189 -74 -110 -96 -143 -114 -165 -8 -11 -34 -49 -58 -84 -23 -35 -50 -76 -60
-90 -9 -14 -26 -44 -37 -66 -11 -22 -27 -49 -35 -59 -8 -11 -15 -27 -15 -37 0
-9 -7 -22 -16 -30 -8 -7 -24 -29 -35 -48 -11 -20 -35 -63 -54 -96 -19 -33 -34
-67 -35 -76 0 -9 -7 -22 -15 -29 -8 -7 -20 -31 -26 -53 -6 -23 -19 -52 -30
-65 -10 -14 -19 -32 -19 -42 0 -9 -9 -25 -20 -35 -11 -10 -20 -25 -20 -34 0
-9 -9 -30 -19 -48 -11 -17 -23 -49 -27 -70 -4 -21 -15 -50 -25 -65 -11 -14
-19 -31 -19 -37 0 -5 -11 -31 -25 -57 -14 -26 -25 -54 -25 -63 0 -9 -9 -34
-20 -56 -11 -22 -20 -51 -20 -65 0 -14 -9 -43 -21 -64 -11 -21 -23 -61 -26
-88 -3 -27 -14 -66 -24 -86 -11 -20 -19 -48 -19 -63 0 -14 -9 -37 -19 -51 -11
-14 -23 -49 -27 -79 -3 -30 -15 -74 -25 -98 -11 -24 -19 -66 -19 -93 0 -27 -9
-75 -20 -107 -10 -32 -24 -106 -29 -165 -6 -59 -16 -116 -22 -128 -6 -11 -15
-67 -19 -123 -5 -56 -16 -120 -26 -141 -39 -91 -39 -1517 1 -1624 9 -25 20
-92 25 -150 4 -58 13 -118 19 -134 7 -16 16 -84 21 -150 5 -69 16 -139 26
-161 8 -21 18 -73 21 -114 2 -42 13 -97 24 -123 10 -26 19 -64 19 -86 0 -22
11 -59 25 -86 14 -26 25 -54 25 -62 0 -8 8 -31 19 -52 10 -20 21 -58 24 -84 4
-26 16 -62 27 -80 11 -18 20 -44 20 -57 0 -13 9 -38 19 -55 11 -17 22 -48 26
-68 4 -21 13 -42 20 -48 14 -11 67 -117 79 -157 4 -11 13 -27 21 -33 8 -7 15
-20 15 -29 0 -9 19 -44 43 -76 23 -33 48 -71 55 -85 7 -14 22 -43 34 -65 18
-34 102 -151 119 -165 3 -3 14 -20 23 -37 9 -18 20 -33 25 -33 4 0 13 -10 18
-22 17 -36 321 -355 390 -409 79 -62 128 -105 153 -131 13 -16 29 -28 35 -28
10 0 94 -56 105 -71 3 -3 16 -12 30 -19 14 -7 32 -19 40 -26 40 -37 79 -64 91
-64 7 0 29 -10 48 -23 42 -27 64 -40 111 -67 19 -11 55 -34 80 -50 25 -16 56
-35 70 -41 14 -6 32 -15 40 -20 8 -5 26 -14 39 -19 37 -16 121 -72 121 -81 0
-5 15 -11 34 -15 19 -3 42 -14 51 -24 10 -11 31 -22 48 -26 17 -3 51 -21 76
-38 49 -34 87 -55 246 -132 54 -27 111 -58 125 -70 14 -12 38 -24 54 -28 16
-4 41 -16 54 -27 14 -10 31 -19 38 -19 7 0 30 -11 50 -25 20 -14 43 -25 50
-25 8 0 14 -4 14 -9 0 -5 15 -16 34 -25 18 -8 39 -22 46 -31 7 -8 19 -15 27
-15 8 0 28 -11 45 -25 16 -14 37 -25 47 -25 9 0 37 -19 61 -42 24 -24 52 -47
61 -53 102 -62 285 -237 313 -300 10 -22 28 -50 39 -62 16 -18 20 -37 21 -107
1 -71 -2 -89 -20 -113 -12 -16 -25 -39 -29 -53 -4 -14 -16 -36 -26 -50 -25
-36 -37 -150 -50 -484 -12 -296 -7 -734 11 -836 5 -30 12 -122 16 -205 5 -104
13 -167 26 -204 10 -30 18 -71 18 -91 0 -20 11 -58 25 -84 14 -26 25 -55 25
-65 0 -10 8 -29 19 -42 10 -13 21 -42 25 -64 4 -21 16 -51 27 -66 10 -15 19
-32 19 -39 0 -12 7 -22 84 -120 24 -30 46 -65 50 -77 4 -12 36 -48 72 -79 35
-31 64 -62 64 -68 1 -6 18 -27 40 -46 76 -67 137 -126 146 -142 5 -8 38 -37
74 -63 36 -27 86 -69 111 -94 85 -83 235 -194 364 -267 55 -31 107 -63 115
-70 23 -19 127 -74 142 -74 7 0 24 -9 38 -20 14 -11 32 -20 41 -20 8 0 30 -11
49 -25 19 -14 41 -25 51 -25 9 0 28 -9 42 -20 14 -11 38 -20 54 -20 15 0 43
-9 61 -20 17 -11 51 -23 75 -26 23 -4 56 -15 73 -25 17 -11 41 -19 52 -19 12
0 42 -11 68 -25 26 -14 61 -25 78 -25 17 -1 49 -9 71 -20 22 -11 62 -19 88
-20 26 0 75 -9 109 -21 39 -13 108 -23 192 -29 72 -5 147 -15 166 -21 21 -7
129 -14 265 -16 188 -4 247 -2 320 12 50 9 145 20 212 25 79 5 144 16 183 29
33 12 83 21 111 21 27 0 64 8 82 17 18 9 56 20 86 24 30 4 67 17 82 28 16 12
41 21 56 21 15 0 42 9 58 20 17 11 41 20 55 20 14 0 49 11 78 25 30 14 64 25
75 25 12 0 37 9 55 20 18 11 43 20 56 20 13 0 44 11 70 25 26 14 56 25 67 25
11 0 36 8 57 19 20 10 62 21 93 24 31 3 71 13 88 21 17 9 65 21 106 26 41 5
87 16 103 23 15 8 55 17 90 21 34 4 84 14 110 22 26 8 99 18 162 24 63 5 131
14 150 20 19 7 96 16 170 20 74 5 162 16 195 25 33 9 125 20 205 25 86 5 159
14 180 23 19 8 83 17 141 21 59 4 133 13 165 22 32 8 124 19 204 24 80 5 159
14 175 20 17 7 80 15 140 19 71 5 122 14 144 25 18 10 60 22 93 27 33 5 73 16
88 24 15 8 62 18 104 24 42 5 83 14 91 21 7 6 43 16 80 21 36 5 76 16 89 24
12 8 45 18 72 21 27 4 63 15 80 25 17 11 39 19 48 19 9 0 43 11 76 25 33 14
73 25 90 25 17 0 45 7 61 16 17 8 56 19 87 24 31 5 71 17 90 26 19 9 58 19 86
23 29 4 63 15 76 24 14 9 34 17 45 17 11 0 37 9 57 20 21 11 57 23 80 26 24 4
57 15 74 25 17 11 43 19 57 19 14 0 38 11 53 25 15 14 36 25 46 25 11 0 31 9
45 20 14 11 32 20 39 20 7 0 34 11 60 25 26 14 55 25 65 25 10 0 20 4 23 9 3
5 25 19 48 31 71 36 107 57 123 70 17 14 64 41 113 64 18 8 52 31 75 49 23 19
57 41 75 51 74 37 92 48 97 57 4 5 21 15 39 23 18 7 45 26 62 41 36 33 127 95
141 95 10 0 55 33 127 93 21 17 50 38 65 46 14 8 28 17 31 20 3 3 39 33 80 65
41 33 84 68 95 78 11 10 32 28 46 40 14 13 65 59 113 103 49 44 98 86 109 94
12 8 35 31 52 50 16 19 42 46 56 59 15 13 143 138 285 279 143 140 263 258
267 261 9 8 150 155 262 273 39 41 97 107 130 148 33 41 80 95 105 121 45 47
55 61 88 113 9 15 47 60 85 99 37 40 67 76 67 81 0 5 25 36 55 69 30 33 62 73
71 91 9 17 23 37 30 45 8 7 14 17 14 21 0 5 30 47 68 93 63 80 87 116 121 177
7 15 40 58 72 98 33 39 59 78 59 86 0 8 20 40 45 70 25 31 45 62 45 71 0 8 7
21 15 30 8 8 24 35 34 59 11 25 24 48 30 51 6 4 11 19 11 34 0 15 11 49 25 76
14 27 25 59 25 71 0 12 8 29 19 39 13 12 20 36 24 89 3 39 13 92 22 117 12 35
16 84 16 225 0 173 -1 182 -26 229 -38 75 -130 116 -188 84 -12 -6 -51 -17
-87 -24 -36 -7 -83 -19 -105 -28 -22 -8 -57 -15 -78 -16 -21 0 -54 -8 -75 -19
-20 -10 -59 -22 -87 -26 -27 -4 -60 -15 -73 -26 -14 -10 -37 -19 -51 -19 -15
0 -36 -7 -49 -15 -12 -9 -50 -21 -84 -27 -35 -6 -79 -19 -98 -29 -19 -11 -50
-19 -68 -19 -18 0 -50 -9 -72 -20 -22 -11 -52 -20 -68 -20 -16 0 -50 -11 -76
-25 -26 -14 -58 -25 -71 -25 -13 0 -39 -8 -57 -19 -18 -10 -55 -21 -82 -25
-27 -3 -63 -13 -80 -22 -17 -8 -53 -18 -81 -21 -27 -3 -61 -13 -75 -22 -14 -9
-45 -21 -70 -28 -25 -6 -63 -18 -85 -27 -22 -8 -57 -15 -78 -16 -21 0 -52 -7
-69 -16 -18 -9 -65 -21 -106 -26 -41 -5 -88 -16 -103 -24 -16 -8 -61 -19 -99
-23 -39 -5 -81 -16 -93 -24 -12 -8 -44 -17 -72 -21 -27 -5 -66 -14 -85 -22
-19 -8 -76 -19 -126 -24 -51 -4 -102 -14 -114 -20 -13 -7 -73 -16 -134 -21
-61 -5 -132 -17 -158 -25 -26 -8 -105 -19 -175 -24 -70 -5 -146 -16 -168 -24
-22 -8 -71 -15 -110 -16 -38 0 -157 -7 -265 -16 -221 -18 -610 -14 -717 8 -50
11 -73 22 -119 62 l-56 49 5 251 c4 219 7 260 26 321 11 38 21 86 21 105 0 19
8 49 18 65 11 17 22 55 26 85 4 30 14 65 21 77 8 12 17 41 21 65 3 24 15 58
25 76 11 18 19 42 19 53 0 17 36 98 61 139 5 8 17 31 25 50 9 19 25 45 35 59
10 13 19 31 19 40 0 9 29 55 65 103 36 48 65 90 65 94 0 25 87 134 235 293 33
36 75 81 93 100 74 82 98 105 127 122 17 10 57 44 90 74 78 72 174 144 203
151 12 3 22 9 22 13 0 12 142 116 178 130 17 7 32 17 32 21 0 4 14 13 30 20
17 7 30 16 30 19 0 15 84 62 126 71 55 13 113 -5 131 -40 10 -19 13 -186 13
-751 l0 -725 33 -32 c32 -31 36 -32 119 -32 68 0 90 4 109 19 13 10 39 22 56
25 18 4 36 13 40 20 5 7 36 32 71 55 34 24 62 48 62 53 0 6 12 36 27 67 26 55
26 60 31 301 4 280 -10 681 -27 724 -6 16 -16 88 -22 160 -6 72 -17 146 -25
164 -7 18 -16 67 -20 110 -4 42 -14 95 -24 117 -10 22 -21 62 -24 88 -4 26
-13 62 -21 80 -7 18 -18 70 -24 116 -6 46 -15 89 -21 96 -5 6 -14 45 -20 85
-6 40 -19 88 -30 105 -11 18 -20 44 -20 59 0 15 -9 46 -19 69 -10 23 -22 66
-26 96 -4 30 -16 72 -26 95 -10 23 -19 58 -19 79 0 21 -8 57 -19 80 -10 23
-22 62 -26 87 -4 25 -16 57 -26 72 -11 14 -19 36 -19 48 0 11 -7 34 -15 51 -9
16 -20 53 -26 82 -5 30 -18 71 -29 92 -11 22 -20 55 -20 75 0 20 -7 45 -15 57
-9 12 -20 48 -26 80 -6 32 -18 66 -27 77 -12 13 -18 41 -20 100 -3 72 -2 83
17 100 12 11 21 25 21 32 0 7 22 39 49 72 91 110 170 220 187 261 9 23 20 41
24 41 4 0 13 12 20 28 23 56 42 85 110 168 5 7 15 27 23 45 8 19 28 50 46 69
46 52 81 109 88 141 3 16 11 33 19 40 7 6 20 33 29 60 9 27 21 51 26 54 5 4 9
14 9 24 0 10 11 38 24 62 13 25 26 72 30 104 5 33 14 85 22 115 19 74 19 329
0 396 -8 27 -18 81 -21 119 -4 39 -15 86 -25 105 -9 20 -21 51 -25 70 -4 19
-13 44 -20 55 -7 11 -17 43 -23 70 -6 28 -20 68 -32 90 -11 21 -20 47 -20 56
0 9 -6 22 -14 28 -8 7 -17 27 -20 45 -4 18 -15 41 -25 50 -11 10 -22 30 -26
44 -3 15 -18 39 -33 55 -34 36 -73 35 -142 -3 -92 -49 -217 -110 -227 -110 -6
0 -16 -6 -22 -14 -7 -8 -25 -18 -41 -21 -15 -3 -54 -26 -85 -51 -32 -24 -63
-44 -70 -44 -8 0 -20 -6 -27 -13 -7 -7 -23 -19 -34 -28 -31 -21 -174 -196
-174 -212 0 -8 -8 -25 -18 -38 -9 -13 -32 -55 -51 -92 -19 -37 -38 -70 -43
-73 -4 -3 -15 -21 -23 -40 -8 -19 -21 -42 -30 -50 -8 -9 -15 -26 -15 -40 0
-22 -54 -132 -71 -144 -4 -3 -13 -28 -20 -55 -7 -28 -18 -59 -25 -70 -6 -11
-17 -49 -23 -84 -6 -35 -15 -69 -21 -76 -6 -8 -18 -62 -25 -121 -16 -117 -47
-197 -79 -203 -27 -4 -95 35 -136 79 -40 43 -164 157 -265 245 -38 33 -87 77
-109 98 -23 21 -57 49 -76 62 -19 12 -71 55 -115 94 -44 40 -93 78 -110 85
-16 8 -59 41 -95 74 -36 34 -69 62 -75 62 -14 0 -155 102 -340 244 -11 9 -38
29 -60 45 -22 17 -51 39 -65 49 -14 11 -36 23 -50 27 -14 4 -38 21 -55 37 -16
16 -61 50 -98 76 -92 61 -235 204 -274 272 -18 30 -41 61 -52 68 -12 7 -21 19
-21 27 0 8 -4 15 -10 15 -5 0 -16 22 -24 49 -8 27 -21 60 -29 73 -8 12 -17 42
-21 65 -3 23 -15 57 -25 75 -15 26 -21 62 -26 168 -4 74 -11 155 -16 180 -6
24 -14 77 -19 117 -5 40 -19 91 -30 112 -11 22 -20 51 -20 64 0 13 -7 32 -15
43 -8 10 -19 36 -25 57 -6 21 -29 61 -51 90 -22 29 -42 64 -46 79 -3 15 -14
35 -24 44 -11 9 -19 21 -19 26 0 11 -35 60 -117 160 -35 43 -63 80 -63 84 0
13 -205 219 -270 271 -36 29 -72 58 -80 65 -92 80 -144 118 -160 118 -10 0
-20 3 -22 8 -15 33 -168 115 -237 126 -24 3 -57 14 -75 23 -45 25 -289 26
-326 2 -14 -9 -41 -22 -62 -28 -59 -19 -168 -137 -168 -183 0 -13 -9 -49 -20
-81 -12 -32 -20 -82 -20 -117 0 -33 9 -93 20 -132 11 -40 20 -97 20 -128 0
-32 8 -72 20 -97 10 -23 22 -64 26 -90 4 -26 15 -60 25 -75 11 -14 19 -35 19
-46 0 -10 9 -31 20 -44 10 -14 22 -45 26 -69 4 -24 14 -57 24 -74 10 -16 20
-48 23 -69 4 -21 15 -48 25 -60 11 -12 23 -32 27 -46 4 -14 14 -34 21 -45 8
-11 14 -30 14 -43 0 -12 9 -40 19 -60 11 -21 23 -56 26 -77 4 -22 16 -54 26
-71 15 -25 20 -54 22 -127 l2 -94 -35 -33 -34 -32 -316 -14 c-173 -8 -495 -21
-715 -28 -257 -9 -411 -18 -430 -26 -16 -6 -85 -15 -151 -19 -86 -5 -129 -12
-147 -24 -13 -9 -49 -19 -78 -23 -30 -4 -76 -15 -102 -25 -26 -11 -69 -19 -94
-19 -26 0 -65 -9 -87 -20 -23 -10 -69 -24 -104 -29 -34 -5 -72 -17 -84 -25
-12 -9 -36 -16 -53 -16 -16 0 -44 -8 -60 -19 -17 -10 -48 -24 -70 -31 -22 -7
-49 -19 -60 -26 -11 -8 -29 -14 -40 -14 -11 0 -36 -8 -55 -19 -19 -10 -51 -22
-70 -26 -19 -4 -48 -18 -63 -31 -16 -13 -37 -24 -47 -24 -9 0 -23 -6 -29 -14
-7 -8 -28 -17 -48 -21 -20 -4 -47 -15 -60 -25 -13 -10 -41 -21 -63 -25 -22 -4
-43 -11 -46 -17 -3 -5 -25 -18 -48 -29 -22 -11 -59 -31 -81 -44 -61 -36 -180
-95 -192 -95 -5 0 -18 -9 -28 -20 -10 -11 -26 -20 -35 -20 -9 0 -27 -11 -40
-25 -13 -14 -27 -25 -32 -25 -5 0 -21 -8 -36 -18 -15 -11 -47 -32 -72 -48 -25
-16 -82 -57 -127 -91 -46 -35 -89 -63 -96 -63 -7 0 -35 -20 -60 -45 -26 -25
-51 -45 -55 -45 -4 0 -14 -9 -22 -20 -8 -11 -20 -20 -26 -20 -19 0 -117 -85
-312 -269 -27 -25 -79 -71 -115 -101 -36 -30 -92 -86 -124 -124 -32 -38 -88
-99 -124 -136 -36 -36 -85 -90 -108 -120 -24 -30 -63 -73 -87 -94 -24 -22 -44
-44 -44 -49 0 -10 -23 -39 -93 -120 -23 -27 -44 -54 -47 -60 -12 -28 -61 -97
-94 -132 -20 -21 -36 -42 -36 -46 0 -7 -35 -63 -90 -144 -8 -12 -27 -40 -42
-63 -15 -22 -32 -43 -38 -47 -5 -3 -10 -16 -10 -29 0 -13 -9 -31 -19 -40 -11
-10 -22 -28 -25 -41 -4 -14 -21 -45 -39 -71 -36 -52 -35 -49 -70 -127 -15 -31
-39 -83 -53 -115 -15 -31 -36 -77 -47 -102 -11 -25 -26 -56 -33 -70 -7 -14
-19 -36 -25 -50 -6 -14 -20 -43 -30 -66 -11 -23 -19 -52 -19 -65 0 -13 -8 -37
-18 -54 -10 -16 -22 -45 -25 -64 -4 -19 -14 -42 -22 -51 -8 -9 -19 -40 -25
-68 -5 -29 -16 -64 -24 -80 -8 -15 -17 -50 -21 -77 -3 -28 -15 -70 -25 -95 -9
-25 -21 -74 -24 -109 -4 -36 -13 -76 -21 -90 -7 -14 -16 -51 -20 -81 -4 -30
-15 -73 -25 -95 -10 -24 -21 -81 -25 -139 -4 -55 -13 -117 -21 -138 -8 -22
-18 -121 -24 -228 -5 -104 -16 -213 -23 -242 -17 -76 -17 -1228 1 -1348 7 -47
17 -138 22 -202 5 -65 15 -129 23 -145 8 -16 18 -51 22 -78 4 -28 15 -63 25
-80 10 -16 22 -48 26 -70 4 -22 13 -49 20 -60 8 -12 18 -50 23 -85 5 -36 16
-82 25 -102 16 -37 25 -216 11 -237 -9 -16 -145 -13 -201 4 -27 9 -96 19 -154
24 -66 5 -119 15 -139 26 -18 9 -59 19 -90 22 -31 4 -67 14 -81 24 -14 9 -46
20 -72 24 -25 3 -52 13 -58 20 -7 8 -18 15 -24 15 -6 0 -28 11 -48 25 -20 14
-43 25 -50 25 -7 1 -38 16 -68 35 -30 19 -66 40 -80 47 -14 7 -47 31 -75 53
-27 23 -75 57 -105 77 -50 33 -72 51 -107 90 -6 7 -25 24 -43 38 -17 14 -43
37 -58 53 -15 15 -66 67 -115 115 -48 49 -87 92 -87 97 0 4 -21 32 -47 61 -61
67 -133 160 -133 172 0 5 -9 17 -20 27 -11 10 -22 27 -26 39 -4 11 -15 30 -25
41 -59 66 -69 79 -69 90 0 7 -9 22 -20 35 -11 13 -23 35 -27 49 -7 29 -49 93
-68 104 -7 4 -16 21 -20 37 -4 16 -11 32 -16 35 -9 6 -79 146 -79 158 0 4 -18
33 -40 64 -22 32 -43 74 -46 93 -4 19 -15 46 -25 59 -11 13 -19 35 -19 49 0
13 -8 39 -19 56 -10 17 -22 42 -26 56 -4 14 -15 36 -25 50 -9 14 -20 41 -24
61 -4 21 -13 42 -20 48 -8 7 -17 34 -21 61 -4 27 -15 66 -26 87 -10 20 -19 55
-19 76 0 21 -7 52 -16 69 -9 17 -20 62 -26 100 -5 38 -18 84 -29 101 -11 19
-19 50 -19 75 0 23 -7 59 -16 80 -8 20 -20 91 -25 157 -5 66 -17 154 -27 195
-15 66 -17 139 -17 630 0 486 2 565 17 635 9 44 20 139 24 210 3 72 15 170 25
220 10 49 19 110 19 135 0 26 9 63 20 85 11 22 24 74 29 115 5 42 16 90 25
107 9 18 16 51 16 75 0 24 9 59 19 79 11 20 22 58 26 85 4 27 16 63 26 80 11
17 19 43 19 56 0 14 9 33 19 42 10 10 22 34 26 54 4 20 15 51 26 68 10 17 19
43 19 56 0 14 9 36 19 50 11 13 22 41 26 61 4 20 16 48 26 61 11 13 19 28 19
34 0 5 8 20 19 33 10 13 24 41 30 62 7 20 17 37 22 37 5 0 9 5 9 11 0 19 61
133 80 151 10 10 22 28 26 40 4 13 15 34 25 47 11 13 19 32 19 42 0 9 6 24 13
31 7 7 26 38 41 68 15 30 38 66 51 80 13 14 38 52 55 85 17 33 49 84 71 113
21 29 39 56 39 61 0 4 9 16 20 26 11 10 20 24 20 31 0 7 11 26 25 42 14 17 25
33 25 36 0 11 53 87 83 119 29 31 97 129 97 140 0 3 19 26 43 51 23 25 53 62
67 82 14 20 41 52 61 72 21 21 61 66 90 102 54 66 118 130 129 130 4 0 11 9
16 19 12 26 120 136 290 296 76 72 147 139 158 150 19 18 118 99 174 142 13
10 42 35 65 56 23 21 71 58 107 82 36 24 87 64 114 90 28 25 64 52 80 59 17 7
49 31 72 53 22 22 48 42 57 46 9 3 17 11 17 16 0 5 15 14 34 21 18 6 42 20 51
30 10 11 22 20 27 20 14 0 86 50 131 91 23 21 53 41 68 44 15 3 35 15 45 26 9
10 22 19 28 19 6 0 40 20 76 45 36 25 69 45 74 45 4 0 21 11 38 25 16 14 38
25 48 25 9 0 23 7 30 15 6 8 22 17 33 21 12 4 33 15 47 26 52 40 102 68 120
68 10 0 26 7 34 16 9 9 33 20 53 26 21 6 48 19 62 29 13 11 31 19 41 19 9 0
25 9 34 19 10 11 29 22 43 26 15 3 38 15 51 26 14 10 35 19 47 19 12 0 34 9
48 20 14 11 32 20 41 20 8 0 55 20 103 45 48 25 94 45 103 45 8 0 38 11 65 25
28 13 61 25 74 25 13 0 38 9 55 19 17 10 50 22 74 26 23 4 48 13 56 20 7 7 33
19 57 25 24 7 50 17 57 23 7 5 35 14 62 18 27 4 64 15 83 24 18 8 59 20 91 25
32 5 64 14 71 20 8 6 43 15 79 21 36 5 83 18 103 29 21 11 48 20 61 20 13 0
43 9 67 20 25 11 73 23 107 27 35 3 75 12 91 20 15 7 62 18 105 23 43 6 96 19
117 30 22 11 57 20 80 20 22 1 58 8 80 16 22 8 91 19 152 24 62 5 117 11 122
14 25 16 134 28 326 36 116 5 251 15 300 22 67 9 365 11 1190 10 927 -2 1109
-5 1156 -17 31 -8 91 -15 132 -15 88 0 223 -17 250 -32 11 -5 64 -14 119 -19
55 -4 106 -13 113 -19 7 -6 42 -15 76 -21 35 -6 71 -17 79 -24 9 -8 46 -19 82
-24 36 -5 77 -16 89 -24 13 -8 49 -17 80 -20 31 -3 73 -15 95 -26 21 -12 51
-21 66 -21 14 0 33 -7 42 -15 19 -20 61 -35 94 -35 15 0 37 -7 49 -15 12 -9
48 -20 79 -26 31 -6 67 -17 79 -25 12 -8 46 -17 74 -21 28 -3 56 -12 62 -19 6
-8 19 -14 28 -14 9 0 43 -14 76 -30 33 -16 70 -30 83 -30 12 0 39 -9 59 -20
21 -11 51 -20 68 -20 16 0 53 -12 80 -25 28 -14 59 -25 71 -25 18 0 90 -33
167 -77 12 -7 30 -13 40 -13 11 0 30 -9 44 -20 14 -11 36 -20 48 -20 12 0 33
-9 47 -19 13 -11 36 -23 51 -26 14 -4 33 -15 43 -26 9 -10 22 -19 28 -19 6 0
32 -11 58 -25 26 -14 53 -25 61 -25 8 0 22 -9 32 -20 10 -11 25 -20 33 -20 17
0 74 -33 115 -67 16 -13 36 -23 46 -23 10 0 26 -9 35 -19 10 -11 29 -22 44
-26 14 -3 38 -16 53 -28 58 -46 73 -57 85 -57 6 0 24 -10 39 -22 33 -26 69
-47 142 -82 29 -13 64 -36 78 -50 15 -15 40 -33 58 -41 45 -22 74 -39 94 -57
10 -9 29 -19 43 -23 22 -7 76 -40 90 -55 3 -3 21 -17 40 -30 19 -13 37 -27 40
-32 3 -4 20 -13 37 -20 18 -8 47 -27 65 -44 18 -16 56 -45 83 -64 28 -19 64
-45 80 -58 17 -12 40 -31 52 -40 13 -9 45 -37 71 -62 27 -25 63 -56 82 -70 69
-52 106 -82 140 -116 310 -304 584 -585 608 -623 9 -14 25 -35 37 -46 11 -11
47 -52 80 -89 33 -38 69 -79 81 -90 12 -12 28 -35 37 -53 9 -17 41 -58 70 -90
47 -52 107 -134 107 -148 0 -3 18 -23 39 -45 22 -23 42 -54 46 -69 3 -16 15
-37 26 -47 10 -9 19 -23 19 -29 0 -7 9 -23 19 -37 11 -13 23 -36 26 -51 4 -14
15 -33 26 -43 10 -9 19 -22 19 -29 0 -6 8 -20 18 -31 10 -11 22 -33 26 -49 4
-17 15 -48 26 -70 10 -22 39 -84 64 -137 26 -54 46 -111 46 -130 0 -18 9 -51
21 -72 11 -21 24 -70 29 -110 5 -39 16 -89 24 -111 8 -22 15 -74 16 -115 0
-41 9 -109 20 -150 25 -96 27 -342 4 -510 -12 -88 -18 -254 -24 -710 -6 -477
-11 -618 -24 -710 -23 -151 -18 -502 7 -565 9 -22 16 -58 17 -80 0 -22 7 -51
15 -65 8 -14 17 -32 21 -40 14 -33 76 -157 98 -199 26 -49 184 -214 225 -236
15 -7 58 -43 96 -79 38 -36 74 -66 78 -66 9 0 54 -34 92 -69 11 -10 49 -42 84
-71 36 -28 81 -67 100 -86 20 -19 39 -34 43 -34 3 0 35 -24 70 -52 35 -29 70
-58 78 -65 8 -7 42 -36 75 -65 33 -29 73 -62 89 -73 40 -28 73 -55 131 -109
27 -25 54 -46 60 -46 6 0 42 -31 80 -70 38 -38 74 -70 81 -70 6 0 40 -27 75
-61 35 -33 84 -75 109 -93 25 -17 66 -52 91 -76 25 -25 58 -54 74 -65 39 -27
145 -114 170 -139 11 -12 44 -41 74 -66 114 -97 136 -116 155 -138 12 -13 32
-30 46 -37 14 -8 65 -52 113 -99 49 -48 93 -86 99 -86 5 0 27 -17 48 -37 42
-41 86 -79 168 -143 29 -22 58 -50 65 -60 6 -11 17 -20 24 -20 11 0 104 -73
155 -122 13 -13 37 -35 53 -49 45 -38 165 -181 165 -195 0 -4 9 -17 19 -28 10
-12 31 -45 46 -73 l27 -53 -58 -52 c-31 -29 -91 -79 -133 -111 -42 -31 -105
-84 -141 -116 -91 -82 -127 -111 -135 -111 -4 0 -24 -18 -44 -39 -20 -22 -54
-54 -76 -71 -22 -17 -69 -59 -105 -94 -36 -34 -84 -77 -108 -95 -23 -18 -49
-45 -56 -60 -8 -14 -40 -53 -71 -86 -31 -33 -63 -73 -71 -90 -8 -16 -18 -37
-23 -45 -5 -8 -22 -42 -38 -74 -26 -56 -28 -67 -28 -195 0 -129 1 -139 28
-188 15 -29 27 -57 27 -62 0 -11 40 -76 62 -101 7 -8 40 -47 72 -85 32 -39 85
-99 117 -134 33 -35 59 -71 59 -81 0 -9 8 -28 19 -41 10 -13 22 -35 26 -49 4
-14 16 -39 26 -56 11 -18 19 -50 19 -76 0 -25 9 -74 20 -108 11 -34 20 -82 20
-105 0 -23 -9 -71 -20 -105 -11 -34 -20 -82 -20 -105 0 -52 -82 -222 -134
-275 -18 -19 -39 -46 -46 -60 -7 -14 -29 -44 -48 -68 -36 -44 -54 -106 -45
-154 6 -31 89 -116 154 -159 39 -26 91 -67 111 -87 44 -46 94 -109 115 -148
25 -46 27 -59 31 -209 3 -147 1 -170 -22 -265 -23 -91 -26 -127 -26 -270 -1
-107 -6 -191 -16 -240 -9 -41 -18 -116 -21 -167 -4 -83 -3 -95 16 -122 12 -16
21 -40 21 -53 0 -12 9 -36 21 -53 11 -16 24 -40 29 -52 5 -13 14 -23 19 -23 5
0 22 -21 37 -47 16 -27 33 -55 39 -64 5 -8 20 -31 32 -50 12 -19 27 -39 32
-46 6 -7 11 -17 11 -22 0 -6 23 -34 50 -62 28 -28 50 -58 50 -66 0 -15 30 -57
69 -98 11 -11 31 -42 45 -70 15 -27 33 -56 40 -65 8 -8 29 -44 48 -80 40 -77
83 -146 98 -155 5 -3 10 -19 10 -34 0 -16 9 -40 21 -54 11 -15 23 -44 26 -64
3 -21 14 -54 25 -73 10 -19 18 -48 18 -65 0 -16 9 -45 20 -63 11 -18 25 -63
30 -100 5 -37 17 -87 26 -112 13 -37 16 -92 17 -315 l0 -270 -27 -70 c-36 -92
-118 -255 -128 -255 -5 0 -16 -16 -24 -36 -8 -20 -30 -48 -47 -62 -18 -15 -62
-55 -99 -90 -36 -35 -80 -71 -96 -80 -17 -10 -63 -39 -102 -67 -85 -59 -121
-81 -214 -129 -37 -20 -80 -45 -94 -56 -13 -11 -33 -20 -44 -20 -10 0 -21 -7
-24 -15 -3 -8 -25 -20 -48 -26 -22 -6 -48 -17 -57 -25 -8 -8 -37 -18 -63 -23
-26 -5 -55 -16 -65 -25 -10 -9 -26 -16 -37 -16 -10 0 -41 -11 -69 -24 -70 -33
-151 -62 -210 -74 -27 -5 -68 -17 -90 -26 -22 -8 -56 -15 -75 -16 -20 0 -46
-7 -59 -16 -13 -10 -51 -23 -85 -30 -33 -7 -79 -19 -101 -28 -22 -8 -61 -15
-87 -16 -26 0 -69 -8 -95 -19 -26 -10 -84 -21 -128 -25 -43 -4 -105 -16 -137
-27 -31 -10 -81 -19 -110 -19 -29 0 -80 -9 -113 -19 -33 -11 -103 -27 -155
-35 -52 -8 -115 -20 -140 -25 -25 -6 -84 -10 -131 -11 -52 0 -117 -8 -164 -20
-55 -14 -111 -20 -189 -20 -74 0 -142 -7 -206 -21 -57 -12 -162 -24 -260 -29
-91 -5 -221 -15 -290 -24 -93 -12 -225 -16 -518 -17 l-392 0 -49 41 c-51 42
-107 129 -117 180 -4 16 -15 37 -25 46 -11 9 -19 24 -19 33 0 9 -7 27 -16 40
-9 13 -21 41 -26 63 -5 23 -18 52 -28 66 -11 13 -20 33 -20 43 0 9 -11 31 -25
47 -14 17 -25 35 -25 41 0 5 -9 15 -19 20 -10 6 -42 45 -70 87 -107 161 -454
515 -599 611 -30 21 -65 46 -78 57 -38 36 -52 46 -81 58 -15 7 -52 32 -81 55
-30 24 -62 43 -71 43 -10 0 -26 9 -36 20 -10 11 -26 20 -35 20 -10 0 -29 9
-43 20 -14 11 -40 23 -59 26 -18 4 -37 10 -43 14 -30 23 -147 80 -163 80 -11
0 -31 9 -45 20 -14 11 -38 20 -55 20 -16 0 -50 11 -76 25 -26 14 -55 25 -65
25 -10 0 -29 8 -42 19 -13 10 -42 21 -64 25 -22 4 -50 14 -62 22 -13 8 -44 17
-70 21 -27 3 -65 14 -85 24 -21 11 -51 19 -67 19 -17 0 -65 11 -107 25 -42 14
-84 25 -93 25 -9 0 -32 8 -51 19 -19 10 -66 21 -104 25 -38 4 -85 14 -105 22
-20 8 -85 19 -145 24 -59 5 -129 16 -155 24 -25 8 -109 17 -186 21 -77 3 -169
10 -205 15 -233 33 -649 35 -880 4 -58 -7 -190 -16 -295 -20 -104 -3 -228 -12
-275 -21 -46 -8 -172 -18 -280 -23 -107 -5 -226 -16 -265 -24 -38 -9 -151 -18
-250 -22 -99 -3 -209 -13 -245 -21 -37 -8 -162 -19 -290 -24 -123 -5 -326 -15
-450 -24 -124 -8 -309 -17 -410 -21 -125 -4 -211 -13 -265 -25 -44 -10 -116
-19 -160 -19 -50 0 -106 -8 -150 -20 -38 -11 -99 -22 -135 -25 -36 -4 -83 -14
-105 -24 -22 -10 -62 -26 -90 -36 -84 -28 -109 -39 -139 -60 -53 -35 -112
-101 -146 -159 -31 -56 -32 -60 -28 -151 3 -67 8 -99 20 -112 9 -10 19 -33 23
-52 10 -49 49 -117 90 -159 19 -20 38 -46 41 -57 8 -26 101 -131 183 -209 36
-34 94 -89 130 -124 36 -34 90 -77 119 -95 29 -17 74 -51 100 -74 26 -24 55
-43 64 -43 9 0 20 -5 24 -11 3 -6 25 -20 48 -31 39 -19 67 -34 199 -106 31
-18 69 -32 83 -32 14 0 39 -9 54 -20 16 -11 50 -23 77 -26 26 -4 64 -15 83
-24 19 -9 54 -20 78 -23 24 -3 51 -12 60 -21 10 -9 47 -18 87 -21 39 -4 104
-15 145 -25 41 -10 129 -21 195 -25 66 -3 152 -12 190 -20 49 -11 162 -17 375
-21 312 -6 513 3 715 30 61 9 167 15 237 16 122 0 128 -1 157 -26 43 -36 42
-79 -2 -122 -18 -18 -42 -32 -54 -32 -11 0 -40 -7 -64 -16 -24 -8 -86 -20
-136 -24 -51 -5 -107 -17 -125 -26 -17 -9 -70 -20 -117 -24 -47 -5 -102 -13
-121 -20 -19 -6 -110 -16 -202 -21 -103 -5 -184 -15 -213 -25 -26 -8 -97 -19
-159 -24 -61 -5 -124 -14 -141 -21 -16 -6 -71 -15 -121 -19 -52 -4 -107 -15
-125 -24 -19 -10 -69 -21 -112 -27 -43 -5 -90 -15 -105 -20 -15 -6 -81 -15
-147 -19 -66 -5 -154 -17 -195 -27 -65 -16 -121 -18 -425 -18 -305 0 -357 2
-404 17 -30 10 -90 21 -135 24 -45 3 -105 15 -134 25 -29 10 -63 19 -75 19
-12 0 -44 12 -72 25 -27 14 -62 25 -78 25 -15 0 -44 9 -64 20 -21 11 -49 20
-63 20 -14 0 -41 8 -60 19 -19 10 -50 22 -69 26 -34 7 -158 68 -175 86 -6 5
-18 9 -27 9 -9 0 -22 7 -29 15 -7 8 -31 20 -54 26 -22 6 -43 14 -46 18 -3 4
-35 22 -72 40 -36 18 -76 44 -89 57 -12 13 -30 24 -40 24 -9 0 -22 7 -29 15
-6 8 -22 17 -33 21 -12 4 -45 26 -74 50 -28 24 -55 44 -61 44 -5 0 -17 9 -27
20 -10 11 -24 20 -31 20 -7 0 -62 40 -122 89 -61 49 -118 92 -128 95 -11 4
-59 45 -108 91 -48 47 -94 85 -101 85 -7 0 -47 33 -88 72 -42 40 -115 109
-163 153 -48 44 -104 97 -123 117 -20 21 -53 55 -75 75 -95 93 -113 110 -137
138 -14 17 -43 46 -65 66 -21 20 -56 56 -78 80 -21 24 -65 72 -98 107 -32 35
-69 80 -82 100 -13 20 -48 63 -77 94 -87 93 -138 153 -170 201 -16 25 -46 63
-65 84 -19 21 -42 52 -50 68 -8 17 -41 59 -73 94 -33 35 -75 80 -94 100 -18
20 -84 83 -146 141 -104 97 -261 276 -261 297 0 26 -89 140 -176 226 -181 179
-219 214 -249 232 -16 10 -55 42 -85 71 -72 68 -116 104 -127 104 -5 0 -32 21
-59 48 -98 92 -144 132 -153 132 -6 0 -16 8 -23 18 -7 9 -29 25 -48 34 -19 10
-42 22 -50 27 -8 5 -123 19 -255 31 -213 20 -282 22 -620 17 -367 -4 -556 -17
-582 -39 -18 -15 -16 -39 7 -89 11 -24 20 -63 20 -85 0 -23 9 -61 19 -85 10
-24 22 -69 26 -99 4 -30 14 -65 23 -78 8 -13 19 -42 23 -65 9 -51 50 -150 72
-175 10 -10 17 -25 17 -34 0 -8 8 -26 19 -39 10 -13 22 -35 26 -49 4 -14 16
-39 26 -56 11 -17 19 -38 19 -46 0 -9 8 -26 19 -39 10 -13 22 -35 26 -49 4
-14 24 -45 45 -70 21 -25 41 -56 45 -70 4 -14 16 -36 26 -49 11 -13 19 -29 19
-36 0 -6 13 -26 28 -43 16 -18 37 -49 47 -70 10 -20 22 -44 27 -52 28 -48 45
-74 61 -92 9 -12 17 -25 17 -30 0 -8 49 -75 78 -106 6 -7 12 -19 12 -26 0 -7
9 -21 19 -30 11 -10 22 -29 26 -44 3 -14 16 -38 28 -53 12 -15 42 -57 67 -94
25 -37 52 -74 61 -83 9 -10 19 -26 23 -38 3 -11 22 -38 41 -60 20 -21 51 -66
71 -99 31 -53 73 -112 201 -280 21 -27 43 -61 49 -75 6 -14 30 -44 53 -67 22
-23 41 -50 41 -59 0 -10 7 -24 15 -33 97 -105 117 -129 121 -148 4 -13 9 -23
13 -23 4 0 14 -12 23 -27 9 -16 34 -47 55 -70 55 -60 83 -96 83 -108 0 -6 20
-31 44 -56 24 -25 75 -88 115 -140 39 -52 91 -114 116 -139 25 -25 45 -50 45
-56 0 -6 7 -18 16 -25 9 -7 19 -21 23 -31 4 -10 35 -48 69 -86 34 -37 94 -101
132 -143 39 -41 70 -80 70 -87 0 -6 8 -18 17 -28 15 -15 90 -106 206 -249 18
-21 107 -116 199 -210 92 -93 171 -174 175 -178 25 -26 240 -229 307 -290 180
-165 261 -241 446 -418 107 -103 211 -199 230 -215 19 -15 58 -50 87 -76 28
-26 55 -48 60 -48 4 0 35 -25 68 -56 33 -31 90 -76 127 -100 37 -24 82 -60
101 -79 19 -19 38 -35 43 -35 5 0 38 -20 74 -45 36 -25 71 -45 79 -45 12 0 35
-16 99 -70 13 -11 29 -20 36 -20 7 0 21 -9 31 -20 10 -11 33 -22 51 -26 18 -3
40 -15 50 -25 9 -10 22 -19 29 -19 7 0 20 -9 29 -19 10 -11 32 -23 50 -27 17
-3 42 -14 56 -24 14 -10 39 -21 57 -24 17 -4 37 -13 43 -21 6 -7 27 -16 47
-20 20 -4 48 -15 61 -26 14 -10 31 -19 39 -19 8 0 31 -9 51 -19 81 -43 150
-71 173 -71 13 0 40 -8 59 -19 19 -10 55 -22 80 -26 25 -4 59 -15 75 -25 17
-9 47 -20 69 -23 21 -4 46 -13 56 -22 9 -9 41 -20 71 -25 30 -4 71 -16 91 -24
21 -9 57 -16 80 -16 24 0 63 -9 87 -20 24 -11 69 -23 100 -26 31 -4 70 -14 86
-24 19 -11 63 -20 118 -24 48 -4 109 -14 135 -21 26 -8 128 -19 228 -25 99 -5
202 -15 230 -22 69 -16 2402 -24 2599 -8 77 6 210 15 295 20 198 11 2808 18
2836 7 12 -4 27 -20 34 -35 22 -47 9 -288 -19 -339 -5 -10 -12 -57 -16 -103
-4 -47 -16 -110 -25 -140 -10 -30 -21 -77 -25 -105 -4 -27 -12 -59 -19 -70 -8
-11 -17 -36 -21 -55 -4 -19 -16 -50 -26 -70 -10 -19 -21 -57 -25 -85 -4 -27
-13 -59 -20 -70 -7 -11 -17 -52 -23 -91 -6 -38 -17 -83 -25 -100 -7 -16 -17
-58 -21 -93 -3 -36 -12 -76 -20 -90 -7 -15 -16 -49 -20 -76 -4 -28 -15 -63
-25 -80 -10 -16 -21 -61 -25 -98 -4 -38 -14 -85 -22 -105 -9 -21 -20 -78 -24
-129 -4 -51 -13 -101 -18 -112 -6 -11 -16 -55 -21 -98 -6 -43 -20 -99 -30
-125 -14 -33 -20 -70 -20 -123 0 -45 -9 -113 -21 -164 -19 -76 -22 -116 -23
-346 -1 -250 0 -262 22 -307 12 -26 22 -55 22 -65 0 -10 14 -38 30 -62 17 -24
30 -50 30 -58 0 -7 4 -13 8 -13 5 0 16 -16 25 -35 9 -19 21 -35 26 -35 5 0 14
-13 20 -29 7 -15 25 -38 41 -50 29 -21 29 -21 40 -2 5 11 10 26 10 33 0 7 9
30 20 50 11 21 22 57 26 80 3 24 14 64 25 90 10 26 19 55 19 65 0 10 9 35 20
55 11 21 24 73 29 116 4 43 14 88 20 101 7 12 16 61 21 109 5 48 16 102 25
118 8 17 18 60 21 95 4 35 12 75 19 89 7 14 18 51 24 82 5 32 17 69 26 82 9
13 19 51 22 83 3 32 14 77 25 101 10 24 18 63 18 87 0 23 11 77 25 119 14 42
25 88 25 102 0 14 8 38 19 52 11 17 20 53 24 97 3 39 13 84 22 102 8 17 18 62
21 100 3 37 15 92 25 121 10 29 19 74 19 100 0 26 7 72 16 102 9 30 22 89 28
130 7 41 20 89 29 107 10 18 17 55 17 86 0 29 9 88 20 130 11 42 23 112 27
154 7 88 33 149 84 196 31 28 35 29 118 25 71 -2 92 -7 115 -26 16 -12 41 -22
55 -22 14 0 43 -9 64 -20 20 -11 44 -20 52 -20 9 0 37 -11 63 -25 26 -14 56
-25 68 -25 12 0 32 -8 45 -18 13 -10 31 -22 39 -26 8 -4 36 -19 61 -34 25 -15
64 -37 86 -49 21 -12 45 -29 52 -37 8 -9 18 -16 24 -16 5 0 20 -10 32 -23 12
-12 35 -32 51 -44 62 -46 101 -79 127 -108 48 -52 127 -153 127 -160 0 -4 6
-13 14 -19 8 -6 43 -67 79 -136 35 -69 78 -151 95 -183 18 -31 32 -65 32 -75
0 -10 9 -36 20 -57 11 -22 23 -58 27 -80 3 -22 14 -54 24 -71 11 -17 19 -47
19 -67 0 -20 11 -57 25 -83 14 -26 25 -62 25 -81 0 -18 7 -50 17 -71 10 -24
18 -80 23 -157 5 -107 9 -126 36 -175 16 -30 40 -60 54 -67 15 -7 63 -13 116
-13 87 0 92 1 121 29 46 44 58 105 44 223 -6 53 -11 132 -11 175 0 43 -7 103
-15 133 -9 30 -20 107 -25 170 -4 63 -15 132 -24 152 -9 20 -19 63 -22 95 -4
32 -15 69 -24 83 -10 14 -20 41 -24 61 -3 19 -15 53 -26 74 -11 22 -20 46 -20
55 0 8 -9 29 -20 45 -11 17 -20 36 -20 44 0 17 -61 111 -72 111 -5 0 -12 9
-16 19 -8 23 -160 197 -257 296 -38 39 -113 106 -165 149 -52 43 -104 85 -115
94 -36 30 -100 72 -110 72 -5 0 -32 21 -59 45 -27 25 -60 48 -73 51 -13 4 -23
10 -23 14 0 4 -15 14 -32 21 -39 16 -84 45 -118 77 -13 12 -34 22 -47 22 -13
0 -23 5 -23 10 0 6 -12 15 -27 21 -16 6 -50 22 -78 34 -27 13 -57 26 -65 29
-8 4 -37 20 -65 36 -27 16 -65 36 -84 45 -52 25 -99 64 -107 88 -4 12 -15 33
-25 46 -24 30 -24 62 0 93 11 13 23 42 26 64 4 21 16 53 26 70 11 17 19 42 19
55 0 12 8 41 19 63 10 23 25 68 34 101 21 85 48 157 63 176 8 8 17 38 20 65 4
27 15 65 26 84 10 19 18 53 18 75 0 22 9 58 19 81 10 23 22 65 26 95 4 30 14
70 22 89 8 19 19 57 24 84 5 27 15 57 23 65 8 9 17 41 21 71 4 30 16 74 26 97
10 23 19 57 19 75 1 18 8 51 16 73 8 22 21 63 28 90 7 28 19 61 28 75 9 14 18
47 22 74 3 27 13 57 20 65 8 9 18 41 22 71 3 30 14 69 24 85 10 17 21 48 25
70 4 22 14 48 23 58 72 76 132 128 162 138 19 6 41 16 47 21 7 6 84 14 170 19
87 5 190 16 228 24 49 11 174 18 415 24 204 5 356 13 373 20 15 6 100 15 188
21 100 6 171 16 188 24 15 8 60 18 101 21 41 4 93 14 115 21 22 8 90 19 150
25 61 6 121 17 135 24 14 7 56 16 95 20 38 4 86 16 105 25 19 10 57 21 85 25
27 4 61 13 75 20 14 7 54 16 90 20 36 4 83 15 105 25 22 10 63 20 92 24 29 4
71 15 95 26 24 11 58 20 77 20 18 0 48 9 65 19 17 10 45 22 63 26 17 3 48 15
69 26 21 10 54 19 74 19 19 0 51 8 70 19 19 10 58 21 85 25 28 4 58 15 67 23
9 8 36 17 60 20 24 3 54 14 67 24 13 11 29 19 35 19 6 0 34 12 61 25 28 14 58
25 68 25 10 0 34 8 55 19 20 10 52 22 70 26 17 3 32 10 32 15 0 9 108 64 150
76 14 4 36 15 49 25 13 11 31 19 40 19 9 0 27 9 41 20 14 11 32 20 41 20 9 0
24 9 35 21 10 12 32 28 49 36 92 47 308 212 431 330 40 37 80 75 90 84 20 18
41 44 77 97 82 121 142 204 154 213 7 6 13 19 13 29 0 9 9 28 19 42 11 13 23
38 27 53 4 16 16 38 26 49 10 11 18 28 18 37 0 10 6 24 13 31 21 20 37 54 37
77 0 11 8 27 18 37 16 16 17 51 17 429 0 379 -1 413 -17 429 -10 10 -18 28
-18 40 0 12 -9 32 -20 43 -10 12 -22 34 -26 50 -4 15 -15 39 -26 52 -10 13
-18 31 -18 39 0 14 -50 128 -71 162 -5 8 -14 26 -19 40 -6 14 -13 30 -17 36
-51 74 -72 110 -102 169 -32 64 -68 125 -89 150 -5 6 -25 35 -46 65 -21 30
-41 57 -45 60 -5 3 -14 17 -22 31 -16 31 -83 112 -116 142 -13 11 -23 24 -23
29 0 13 -58 90 -81 105 -35 25 -138 188 -139 220 0 13 -7 41 -16 64 -16 38
-16 45 0 93 9 29 16 62 16 73 0 11 9 32 20 46 11 14 20 31 20 38 0 7 12 31 27
53 54 83 88 131 100 144 7 7 13 24 13 36 0 13 9 33 20 46 11 13 20 37 20 53 0
17 7 69 16 115 15 79 15 94 -2 201 -9 64 -23 123 -29 131 -7 8 -17 29 -22 45
-6 17 -37 66 -70 110 -34 44 -84 125 -114 180 l-52 100 0 120 c0 115 14 205
33 205 4 0 13 23 19 52 7 28 16 58 22 65 6 7 17 45 25 85 7 40 20 98 29 128
17 61 20 215 5 270 -5 19 -17 64 -26 100 -25 96 -49 141 -174 315 -27 39 -55
82 -61 98 -6 15 -14 27 -19 27 -4 0 -13 15 -21 33 -7 17 -21 43 -31 56 -10 13
-18 31 -18 41 0 9 -9 25 -19 34 -11 10 -23 31 -26 46 -3 16 -12 34 -20 40 -7
6 -28 41 -45 77 -29 60 -32 73 -28 142 3 70 7 81 46 136 52 74 201 228 267
275 27 19 74 60 105 90 31 30 107 102 170 160 163 150 264 256 329 343 63 83
112 274 91 347 -5 19 -10 51 -10 70 0 19 -9 51 -19 70 -11 19 -25 46 -31 60
-21 46 -212 260 -232 260 -3 0 -40 33 -82 73 -140 134 -255 240 -279 256 -13
9 -64 52 -112 96 -48 44 -105 96 -128 115 -22 19 -67 59 -99 88 -32 28 -62 52
-66 52 -5 0 -51 40 -103 90 -52 49 -99 90 -105 90 -5 0 -43 32 -84 70 -41 39
-80 70 -87 70 -7 0 -18 9 -25 20 -7 11 -17 20 -23 20 -5 0 -26 15 -45 33 -19
18 -48 42 -64 52 -15 10 -57 46 -93 79 -36 34 -82 73 -103 87 -42 28 -131 99
-167 133 -38 36 -70 59 -152 111 -9 6 -39 33 -67 60 -28 28 -64 58 -81 66 -17
8 -63 45 -103 82 -39 37 -78 67 -85 67 -7 0 -35 17 -62 38 -26 21 -82 64 -123
95 -41 31 -79 60 -85 65 -63 51 -192 138 -232 157 -17 8 -49 30 -70 50 -21 19
-53 40 -70 46 -18 6 -33 15 -33 20 0 6 -15 17 -32 25 -125 59 -186 117 -199
189 -11 60 8 499 26 601 9 50 18 174 21 284 3 107 12 236 20 285 8 50 19 161
24 248 6 87 14 166 19 175 14 27 31 165 31 258 0 46 8 126 17 176 20 115 23
510 4 603 -7 33 -16 110 -20 170 -5 68 -14 124 -25 146 -9 19 -21 60 -26 91
-5 31 -15 69 -23 85 -8 15 -17 52 -20 82 -4 29 -13 64 -21 76 -8 12 -19 47
-25 78 -6 31 -17 67 -24 79 -8 13 -18 39 -21 59 -4 21 -13 42 -20 48 -17 14
-60 102 -76 154 -6 20 -15 37 -20 37 -4 0 -13 14 -19 32 -6 17 -18 39 -26 48
-8 8 -28 43 -46 75 -17 33 -37 67 -44 75 -7 8 -16 26 -20 40 -4 14 -13 32 -21
40 -30 35 -164 243 -164 255 0 7 -4 15 -8 17 -15 5 -122 137 -122 149 0 6 -31
44 -70 83 -38 40 -70 76 -70 80 0 15 -138 173 -213 245 -21 20 -50 49 -65 65
-124 133 -382 368 -483 443 -24 17 -70 56 -102 87 -33 30 -68 58 -79 62 -11 3
-49 34 -85 69 -36 35 -76 66 -90 69 -13 4 -31 14 -41 22 -47 43 -273 204 -286
204 -8 0 -52 33 -91 68 -11 10 -31 24 -45 31 -14 6 -43 23 -65 36 -22 13 -53
32 -70 41 -16 9 -34 23 -40 30 -5 6 -41 29 -80 49 -38 21 -99 53 -134 72 -35
18 -77 45 -93 58 -16 14 -38 25 -48 25 -10 0 -26 7 -34 16 -9 9 -33 20 -54 26
-20 5 -44 16 -52 23 -22 19 -180 100 -222 114 -20 7 -42 19 -48 27 -7 7 -19
14 -28 14 -21 0 -123 48 -147 70 -11 10 -34 21 -52 25 -17 3 -37 13 -44 21 -6
8 -18 14 -27 14 -8 0 -38 11 -66 24 -29 14 -65 28 -81 32 -17 4 -37 12 -45 19
-8 7 -29 16 -46 19 -18 4 -40 16 -50 27 -9 10 -22 19 -28 19 -6 0 -33 12 -61
25 -27 14 -58 25 -69 25 -10 0 -33 8 -50 19 -17 10 -42 22 -56 26 -14 4 -36
16 -49 26 -13 11 -32 19 -43 19 -10 0 -35 8 -56 19 -20 10 -55 22 -77 25 -22
4 -47 14 -56 22 -9 8 -39 18 -67 23 -28 4 -57 13 -64 18 -7 6 -33 17 -58 24
-25 7 -56 21 -69 31 -13 10 -38 18 -55 18 -17 0 -49 9 -71 19 -23 10 -62 21
-88 25 -26 4 -67 16 -90 26 -23 11 -53 20 -66 20 -13 0 -38 8 -55 19 -17 10
-58 21 -92 25 -33 4 -84 15 -112 26 -29 11 -72 20 -97 20 -24 0 -68 9 -97 19
-29 11 -83 22 -120 26 -37 3 -90 15 -118 26 -27 10 -67 19 -86 19 -20 0 -51 8
-68 19 -18 11 -61 21 -101 25 -38 3 -99 15 -133 26 -36 11 -92 20 -128 20 -37
0 -85 8 -116 19 -32 11 -94 21 -155 25 -56 3 -123 13 -149 22 -25 8 -89 19
-142 23 -54 5 -117 16 -142 25 -26 9 -76 16 -119 16 -145 0 -355 21 -364 36
-7 12 -71 14 -380 13 -205 0 -379 -3 -387 -6z m1698 -2068 c28 -8 62 -21 74
-29 12 -9 29 -16 38 -16 8 0 35 -14 60 -30 25 -17 53 -36 64 -43 88 -57 235
-215 236 -251 0 -6 9 -22 20 -36 11 -14 20 -34 20 -46 0 -12 11 -42 25 -68 14
-26 25 -60 25 -77 0 -16 7 -46 15 -66 14 -32 38 -165 51 -273 6 -48 -32 -120
-71 -139 -16 -8 -38 -18 -47 -23 -91 -43 -329 133 -462 342 -16 25 -37 56 -46
70 -9 14 -19 42 -23 63 -3 21 -13 52 -22 70 -10 18 -21 67 -25 110 -5 43 -15
86 -22 94 -14 17 -25 303 -13 350 5 20 10 24 28 19 12 -4 46 -13 75 -21z
m-323 -1805 c231 -7 337 -14 380 -25 33 -8 107 -18 165 -21 62 -3 129 -14 163
-25 31 -10 70 -19 85 -19 15 0 43 -9 63 -19 20 -11 54 -23 75 -27 22 -4 56
-15 76 -25 21 -11 48 -19 60 -19 13 0 33 -7 45 -15 12 -9 40 -22 62 -30 44
-15 84 -42 140 -94 20 -18 48 -38 63 -43 15 -5 36 -24 47 -41 11 -18 36 -48
55 -66 26 -25 36 -44 36 -65 0 -62 -105 -128 -220 -139 -36 -3 -85 -15 -110
-26 -25 -11 -58 -21 -75 -21 -16 0 -45 -9 -63 -20 -18 -11 -40 -20 -50 -20 -9
0 -33 -10 -52 -22 -49 -31 -74 -45 -162 -90 -43 -22 -78 -44 -78 -47 0 -10
-127 -111 -139 -111 -20 0 -251 -288 -270 -337 -8 -18 -17 -33 -21 -33 -5 0
-14 -16 -20 -36 -7 -20 -21 -45 -31 -55 -11 -11 -19 -27 -19 -38 0 -10 -8 -29
-18 -42 -11 -13 -22 -42 -25 -64 -4 -22 -16 -58 -27 -80 -29 -57 -29 -186 1
-230 26 -38 91 -85 117 -85 11 0 30 -8 43 -19 16 -12 48 -20 94 -24 39 -3 108
-15 155 -25 78 -19 369 -36 585 -36 228 0 527 18 602 35 45 10 111 21 147 25
45 5 71 13 82 25 10 11 25 19 34 19 9 0 31 11 50 25 19 14 40 25 46 25 7 0 17
6 21 14 4 7 19 19 32 26 13 6 54 42 91 78 60 58 186 178 280 263 15 15 46 40
67 55 21 16 44 35 51 42 7 6 18 12 23 12 5 0 17 8 27 18 41 40 130 112 139
112 6 0 27 11 47 25 20 14 47 27 61 31 13 3 29 12 36 20 9 11 15 12 26 2 9 -7
25 -17 36 -23 38 -19 219 -247 252 -318 8 -18 26 -50 39 -72 58 -98 86 -160
86 -187 0 -16 11 -46 25 -66 14 -20 25 -40 25 -45 0 -5 17 -29 39 -55 52 -64
127 -174 135 -199 6 -18 22 -40 70 -93 7 -8 17 -26 21 -40 4 -14 17 -41 29
-60 12 -19 27 -44 34 -55 7 -11 20 -36 28 -55 9 -19 34 -56 55 -81 20 -25 41
-57 44 -72 4 -14 13 -31 21 -38 8 -6 14 -17 14 -23 0 -7 11 -23 24 -35 13 -12
38 -50 56 -84 18 -34 43 -80 56 -102 13 -22 31 -56 40 -75 9 -19 26 -45 38
-56 36 -37 47 -53 58 -87 6 -17 19 -43 30 -56 10 -13 18 -29 18 -36 0 -6 9
-20 19 -29 11 -10 22 -29 26 -44 3 -14 23 -46 44 -71 21 -25 42 -57 46 -71 4
-14 14 -33 22 -42 21 -24 35 -96 28 -140 -5 -30 -14 -42 -50 -63 l-44 -25
-301 0 c-281 0 -303 1 -340 20 -22 11 -45 20 -51 20 -32 0 -217 192 -257 267
-7 13 -21 32 -30 42 -9 10 -34 37 -56 62 -87 100 -154 165 -201 198 -27 19
-56 41 -63 48 -7 7 -18 13 -24 13 -5 0 -27 13 -47 29 -78 61 -139 99 -169 106
-18 3 -35 11 -38 17 -3 5 -25 18 -48 29 -22 11 -52 26 -66 34 -14 8 -33 15
-44 15 -10 0 -33 8 -50 19 -17 10 -55 22 -85 25 -29 4 -63 13 -75 21 -12 8
-51 17 -87 21 -35 3 -102 14 -148 26 -73 17 -117 20 -326 20 -209 0 -253 -3
-326 -20 -46 -12 -113 -23 -148 -26 -36 -4 -74 -12 -86 -20 -12 -8 -44 -17
-71 -21 -27 -4 -65 -15 -84 -25 -20 -9 -51 -21 -70 -25 -19 -4 -43 -16 -53
-26 -10 -11 -24 -19 -31 -19 -7 0 -24 -9 -38 -19 -13 -11 -37 -23 -53 -27 -16
-4 -47 -20 -69 -36 -77 -54 -117 -81 -222 -152 -33 -22 -80 -58 -105 -80 -26
-23 -63 -52 -84 -66 -20 -14 -60 -46 -88 -72 -28 -26 -69 -57 -90 -70 -21 -13
-67 -51 -102 -85 -35 -35 -68 -63 -72 -63 -5 0 -40 -30 -78 -67 -38 -38 -85
-81 -105 -96 -76 -61 -431 -408 -979 -958 -7 -8 -127 -126 -267 -264 -402
-397 -565 -555 -573 -555 -4 0 -32 -25 -61 -55 -30 -31 -91 -86 -135 -122 -44
-37 -108 -94 -143 -127 -35 -34 -77 -72 -94 -86 -17 -14 -54 -45 -83 -70 -28
-25 -65 -54 -80 -65 -41 -29 -94 -74 -137 -117 -21 -21 -43 -38 -49 -38 -12 0
-48 -26 -112 -82 -55 -48 -106 -85 -135 -98 -12 -5 -25 -16 -28 -24 -3 -8 -17
-17 -31 -20 -13 -4 -43 -24 -65 -45 -22 -22 -69 -54 -104 -72 -35 -17 -69 -38
-75 -46 -6 -7 -17 -13 -24 -13 -7 0 -37 -20 -67 -43 -29 -24 -65 -47 -79 -50
-14 -4 -36 -16 -49 -27 -13 -11 -34 -20 -46 -20 -13 0 -29 -9 -36 -20 -7 -11
-18 -20 -24 -20 -6 0 -28 -11 -48 -25 -20 -14 -46 -25 -57 -25 -12 0 -33 -8
-47 -19 -15 -10 -41 -22 -59 -25 -17 -4 -37 -13 -43 -21 -6 -8 -36 -19 -65
-25 -29 -6 -59 -17 -65 -25 -6 -8 -26 -17 -43 -20 -18 -4 -42 -13 -55 -21 -12
-8 -48 -20 -80 -25 -31 -6 -62 -15 -69 -21 -6 -5 -45 -14 -85 -20 -40 -5 -89
-16 -108 -24 -19 -9 -79 -19 -133 -24 -54 -4 -105 -14 -113 -21 -18 -15 -203
-27 -361 -24 -76 1 -107 6 -120 17 -10 9 -33 23 -51 32 -42 22 -132 111 -132
131 0 9 -20 40 -45 71 -25 30 -45 63 -45 73 0 10 -9 30 -20 44 -11 14 -20 34
-20 45 0 10 -11 40 -25 66 -14 26 -25 57 -25 70 0 13 -8 34 -19 47 -10 13 -22
39 -26 58 -4 18 -16 52 -26 75 -10 22 -19 63 -19 89 0 26 -8 64 -19 85 -11 22
-21 71 -25 122 -3 47 -13 108 -22 135 -8 28 -18 97 -21 155 -2 58 -13 134 -23
170 -50 179 -48 1052 4 1189 9 25 16 73 16 115 0 41 9 102 20 143 11 40 24
107 29 150 4 43 16 93 25 110 9 18 16 54 16 80 0 26 9 67 20 90 10 23 22 62
25 87 4 25 16 53 26 62 11 10 19 30 19 48 0 18 9 49 19 69 11 21 23 57 26 80
4 23 16 56 26 73 10 17 19 44 19 60 0 16 9 43 19 60 10 17 22 44 25 61 4 17
16 39 27 49 10 9 19 27 19 39 0 12 9 34 20 48 11 14 20 33 20 44 0 10 17 51
38 91 20 40 52 103 71 140 107 215 121 241 149 277 12 15 22 32 22 37 0 6 9
21 20 35 11 14 20 34 20 44 0 10 19 42 43 71 23 29 49 68 56 86 7 17 17 32 22
32 5 0 9 5 9 12 0 7 12 30 27 52 53 82 87 131 93 136 6 5 62 85 93 134 44 69
327 366 387 405 25 16 63 46 85 66 36 34 136 105 146 105 3 0 62 57 133 126
70 69 142 132 160 139 18 8 38 21 46 29 7 9 18 16 25 16 6 0 20 9 30 20 10 11
27 23 39 26 11 4 45 27 74 50 30 24 58 44 63 44 4 0 28 14 51 30 24 17 54 38
68 48 14 9 27 20 30 24 3 4 26 16 50 27 45 21 56 27 121 68 19 13 42 23 51 23
8 0 21 7 28 15 16 19 116 75 134 75 8 0 32 11 52 25 20 14 44 25 53 25 9 0 27
9 41 20 14 11 35 20 47 20 12 0 29 7 38 16 22 23 125 73 149 74 10 0 33 8 50
19 17 10 47 21 67 25 20 4 47 15 59 26 13 11 29 20 37 20 8 0 30 8 51 19 20
10 56 21 78 25 23 3 61 15 85 26 24 11 55 20 69 20 14 1 43 8 65 16 22 9 66
20 98 25 32 5 77 17 100 28 23 10 66 21 95 25 30 4 70 13 90 21 21 7 80 16
133 19 53 4 119 13 145 22 81 27 775 39 1309 24z m4693 -552 c18 -24 23 -103
24 -409 l0 -305 -27 -54 c-58 -115 -173 -233 -255 -262 -17 -5 -30 -14 -30
-18 0 -13 -118 -70 -145 -70 -19 0 -29 12 -54 62 -17 33 -31 73 -31 88 0 15
-7 47 -15 70 -18 50 -20 146 -4 187 6 15 14 65 19 110 5 45 15 92 24 105 8 13
18 41 22 63 4 22 15 52 25 67 11 14 19 31 19 38 0 14 48 99 69 122 9 9 32 35
51 58 19 23 68 69 108 101 71 57 75 59 131 59 35 0 63 -5 69 -12z m-2654 -520
c58 -50 69 -80 70 -188 1 -95 1 -96 -34 -137 -19 -23 -57 -52 -85 -66 -93 -47
-142 -67 -161 -67 -10 0 -41 -12 -69 -25 -27 -14 -62 -25 -76 -25 -15 0 -32
-6 -38 -14 -7 -8 -35 -20 -64 -26 -29 -6 -66 -18 -84 -26 -18 -8 -72 -18 -120
-23 -48 -5 -100 -13 -115 -19 -39 -16 -251 -27 -273 -15 -15 9 -18 22 -16 83
2 59 8 84 32 129 16 30 36 63 44 71 8 9 15 23 15 31 0 17 72 87 127 123 21 14
57 39 80 55 23 17 59 33 80 37 21 3 52 14 68 24 17 10 53 20 81 24 27 3 68 15
89 26 23 12 60 20 90 21 27 0 75 9 105 19 35 12 85 19 136 19 77 1 83 -1 118
-31z m208 -2108 c29 -11 65 -20 80 -20 15 0 34 -7 42 -15 8 -9 30 -21 48 -27
18 -6 44 -19 57 -30 13 -10 31 -18 40 -18 9 0 42 -22 74 -49 31 -28 72 -60 89
-73 38 -26 87 -80 104 -114 14 -25 19 -32 84 -103 25 -26 56 -67 70 -91 28
-46 221 -250 238 -250 6 0 21 -10 34 -22 50 -49 119 -99 150 -110 18 -6 40
-16 48 -23 8 -7 36 -17 61 -22 26 -6 63 -23 83 -38 33 -25 35 -29 21 -45 -8
-9 -20 -32 -26 -51 -7 -19 -17 -41 -24 -49 -6 -8 -17 -30 -25 -47 -7 -18 -16
-33 -19 -33 -10 0 -58 -74 -66 -102 -4 -13 -27 -47 -51 -77 -24 -29 -44 -58
-44 -63 0 -6 -10 -23 -22 -38 -13 -15 -32 -40 -43 -56 -40 -56 -120 -150 -185
-216 -36 -36 -69 -72 -75 -80 -50 -66 -64 -87 -78 -113 -8 -16 -26 -42 -40
-57 -37 -40 -97 -133 -97 -150 0 -8 -9 -23 -19 -32 -11 -10 -23 -30 -26 -45
-3 -15 -21 -50 -39 -77 -38 -58 -96 -180 -96 -201 0 -8 -9 -26 -20 -40 -11
-14 -20 -33 -20 -42 0 -10 -11 -32 -25 -51 -14 -19 -25 -44 -25 -57 0 -13 -9
-41 -20 -63 -11 -22 -20 -50 -20 -62 0 -13 -11 -45 -25 -73 -13 -27 -25 -67
-25 -88 0 -22 -8 -51 -19 -65 -10 -15 -21 -46 -24 -70 -3 -24 -13 -52 -22 -62
-9 -10 -20 -48 -26 -84 -5 -37 -15 -77 -23 -89 -7 -12 -16 -48 -19 -80 -3 -31
-13 -72 -22 -90 -9 -17 -19 -54 -22 -82 -7 -66 -67 -204 -111 -257 -82 -98
-158 -115 -422 -98 -91 7 -201 20 -245 30 -54 13 -136 21 -250 24 -93 3 -186
10 -205 15 -63 18 -226 31 -372 31 -79 0 -186 7 -238 15 -52 8 -212 19 -355
25 -143 5 -307 16 -365 25 -58 8 -184 18 -280 21 -96 4 -204 13 -240 21 -39 8
-176 17 -340 23 -151 5 -320 16 -375 25 -57 9 -207 18 -350 21 -149 3 -313 13
-405 25 -85 10 -172 19 -192 19 -20 0 -43 3 -52 6 -20 8 -21 67 -2 83 8 7 18
25 21 41 3 15 15 36 26 46 10 9 19 22 19 29 0 6 26 36 58 66 31 29 76 79 99
109 37 48 240 262 421 442 9 10 76 76 147 148 118 118 302 296 372 361 15 14
46 44 68 66 64 65 177 169 215 199 35 28 95 83 251 235 48 47 100 91 115 99
16 8 47 33 70 55 23 22 65 60 95 85 29 25 64 55 77 68 12 12 25 22 28 22 5 0
121 97 159 133 44 41 152 125 177 138 15 8 53 39 85 70 32 31 72 63 90 72 17
9 58 40 90 69 66 61 110 92 138 102 11 3 41 25 67 49 25 23 63 53 83 67 39 27
103 74 121 89 6 5 24 16 40 25 16 8 43 29 59 47 17 17 42 37 58 45 15 8 27 18
27 23 0 4 12 13 27 20 15 7 46 29 68 48 39 34 197 142 256 175 17 9 38 23 48
32 10 9 24 16 33 16 8 0 26 8 39 19 13 10 41 23 61 30 20 7 42 19 48 27 7 7
23 14 35 14 12 0 33 8 46 18 39 30 131 70 173 76 21 3 46 12 55 19 9 8 41 18
71 21 30 4 62 14 72 23 9 8 45 18 80 23 35 5 81 15 103 23 63 24 251 22 317
-3z m4432 -4036 c23 -9 21 -76 -4 -124 -11 -22 -20 -47 -20 -57 0 -10 -11 -36
-25 -58 -13 -22 -25 -51 -25 -65 0 -14 -7 -36 -16 -49 -9 -13 -21 -41 -26 -63
-5 -23 -18 -52 -28 -66 -11 -13 -20 -34 -20 -46 0 -12 -16 -44 -35 -71 -19
-28 -40 -61 -47 -75 -7 -14 -20 -36 -30 -49 -10 -13 -18 -31 -18 -41 0 -9 -11
-29 -25 -44 -14 -15 -25 -35 -25 -44 0 -9 -25 -46 -56 -82 -31 -36 -63 -80
-71 -99 -8 -18 -32 -52 -53 -75 -52 -57 -90 -103 -90 -110 0 -11 -103 -136
-111 -136 -5 0 -14 -12 -22 -26 -31 -59 -527 -565 -582 -594 -16 -8 -62 -47
-101 -87 -40 -40 -86 -80 -101 -90 -15 -10 -36 -28 -47 -41 -20 -25 -120 -102
-133 -102 -4 0 -27 -18 -51 -40 -24 -21 -69 -56 -100 -77 -31 -20 -68 -48 -82
-61 -21 -20 -128 -96 -179 -127 -73 -45 -129 -82 -146 -97 -11 -10 -44 -31
-73 -46 -103 -51 -118 -60 -131 -76 -8 -9 -22 -16 -32 -16 -9 0 -25 -7 -34
-17 -25 -24 -98 -73 -111 -73 -6 0 -22 -8 -35 -19 -13 -10 -35 -22 -49 -26
-14 -4 -34 -15 -45 -25 -22 -19 -195 -105 -235 -116 -14 -4 -36 -15 -49 -25
-13 -11 -31 -19 -41 -19 -9 0 -25 -9 -35 -20 -10 -11 -23 -20 -29 -20 -6 0
-33 -12 -61 -25 -27 -14 -55 -25 -62 -25 -6 0 -27 -9 -45 -19 -18 -10 -49 -22
-69 -25 -21 -4 -42 -13 -49 -20 -6 -8 -29 -17 -50 -21 -22 -4 -50 -15 -64 -26
-13 -10 -30 -19 -38 -19 -8 0 -31 -9 -53 -20 -21 -11 -55 -23 -74 -26 -20 -4
-53 -15 -73 -25 -21 -11 -49 -19 -63 -19 -14 0 -47 -11 -73 -25 -26 -14 -57
-25 -69 -25 -12 0 -37 -9 -55 -20 -21 -12 -51 -20 -80 -20 -25 0 -68 -9 -93
-20 -26 -11 -80 -24 -119 -29 -39 -5 -89 -16 -111 -25 -22 -8 -71 -15 -110
-16 -48 0 -84 -7 -115 -21 -28 -13 -80 -24 -140 -29 -52 -4 -138 -15 -190 -25
-134 -24 -703 -17 -795 10 -66 18 -88 32 -79 47 4 6 10 35 14 66 9 66 47 161
73 180 9 7 17 24 17 37 0 13 5 27 11 30 9 6 37 56 73 132 9 17 30 53 48 78 63
90 98 155 98 180 0 8 5 17 10 20 14 9 60 81 81 126 9 20 22 40 28 43 6 4 11
15 11 25 0 9 8 26 18 37 10 11 22 32 26 48 7 27 31 68 67 111 9 11 20 31 24
45 4 14 16 36 26 49 11 13 19 30 19 38 0 8 8 27 19 41 10 15 22 38 26 51 8 26
44 84 75 120 11 13 20 32 20 41 0 10 7 23 15 30 8 7 20 30 27 51 6 22 17 44
25 50 7 6 13 16 13 21 0 5 9 22 21 36 38 50 66 98 73 128 4 16 14 36 21 44 8
9 21 31 30 50 9 19 26 52 38 72 69 115 85 145 92 168 4 14 16 36 26 49 11 13
19 29 19 35 0 6 11 28 25 48 14 20 25 44 25 52 0 8 8 20 19 25 10 6 22 23 25
37 4 15 16 39 27 52 10 14 19 32 19 42 0 9 9 27 20 40 11 13 20 27 20 31 0 4
6 14 14 21 7 8 30 50 51 93 20 44 48 103 61 130 46 97 213 235 283 235 14 0
50 9 79 20 37 14 76 20 137 20 60 0 104 6 147 21 33 11 104 24 157 29 53 5
112 14 131 20 19 7 91 15 160 20 69 4 145 15 170 24 25 8 97 18 160 22 63 3
146 15 185 25 40 11 103 19 147 19 52 0 94 6 130 20 29 11 91 24 138 29 47 5
112 17 145 25 32 9 94 16 136 16 48 0 101 7 140 19 35 11 111 23 169 27 58 4
121 13 140 21 19 9 73 19 120 24 47 4 104 15 128 23 24 9 91 18 150 22 59 4
127 13 152 22 25 8 101 18 170 22 69 4 139 13 155 20 17 7 77 18 135 26 58 7
119 20 135 28 17 9 48 16 71 16 22 0 63 7 90 16 84 27 305 45 348 28z m-8479
-85 c116 -6 235 -17 265 -25 32 -9 142 -19 260 -24 113 -5 219 -14 235 -20 17
-6 116 -16 220 -21 114 -6 227 -18 282 -29 51 -11 127 -20 170 -20 44 0 107
-8 147 -19 42 -11 124 -22 201 -25 72 -4 173 -15 225 -26 62 -13 135 -20 210
-20 63 0 156 -7 205 -16 68 -12 195 -18 525 -23 416 -7 437 -9 480 -29 25 -12
61 -22 81 -22 71 0 74 -8 74 -192 0 -131 -3 -170 -17 -198 -9 -19 -20 -57 -24
-85 -4 -27 -13 -59 -20 -70 -7 -11 -18 -39 -25 -62 -7 -24 -15 -43 -19 -43 -9
0 -30 -47 -30 -68 0 -10 -9 -35 -20 -57 -11 -22 -20 -51 -20 -65 0 -14 -7 -35
-15 -46 -8 -10 -20 -37 -26 -59 -6 -21 -19 -50 -30 -63 -10 -14 -19 -31 -19
-39 0 -8 -11 -35 -25 -61 -14 -26 -25 -56 -25 -67 0 -11 -7 -31 -16 -44 -9
-13 -21 -41 -25 -62 -5 -21 -27 -65 -49 -96 -22 -32 -40 -64 -40 -71 0 -16
-48 -109 -72 -141 -10 -13 -18 -32 -18 -42 0 -22 -54 -110 -75 -122 -8 -4 -15
-15 -15 -24 0 -18 -34 -73 -90 -143 -20 -25 -41 -56 -48 -70 -7 -14 -27 -45
-46 -70 -19 -25 -35 -51 -35 -58 -1 -6 -32 -44 -71 -83 -38 -40 -70 -78 -70
-85 0 -8 -19 -34 -42 -58 -24 -24 -61 -66 -83 -92 -22 -27 -66 -75 -97 -107
-32 -33 -58 -62 -58 -66 0 -3 -13 -20 -28 -38 -61 -68 -190 -209 -252 -273
-66 -68 -101 -108 -155 -175 -36 -47 -152 -140 -185 -150 -14 -4 -33 -15 -44
-24 -15 -13 -42 -16 -150 -16 -121 0 -134 2 -160 23 -18 14 -42 22 -67 22 -20
0 -57 8 -81 18 -24 11 -66 22 -95 26 -29 4 -71 15 -95 26 -24 11 -58 20 -76
20 -18 0 -50 9 -72 20 -22 11 -49 20 -61 20 -11 0 -34 9 -50 21 -16 11 -53 24
-82 28 -29 4 -63 14 -77 23 -14 9 -46 18 -72 22 -26 3 -62 15 -80 26 -18 11
-42 20 -53 20 -11 0 -34 9 -51 19 -17 10 -46 22 -65 26 -18 4 -43 14 -54 21
-11 7 -40 16 -65 20 -24 4 -58 15 -75 25 -16 9 -48 20 -70 24 -22 4 -47 13
-55 20 -8 7 -34 18 -56 24 -23 6 -47 18 -54 26 -7 8 -23 15 -35 15 -12 0 -34
9 -48 20 -14 11 -46 24 -72 29 -25 5 -54 16 -64 25 -10 9 -26 16 -36 16 -24 0
-139 56 -155 75 -7 8 -19 15 -28 15 -23 0 -211 90 -242 115 -8 7 -31 20 -50
29 -19 8 -42 20 -50 26 -8 5 -26 15 -40 20 -14 6 -47 24 -75 40 -27 16 -60 33
-72 39 -12 5 -45 26 -73 46 -28 20 -62 40 -75 45 -13 5 -54 30 -92 56 -65 45
-85 60 -150 111 -15 13 -31 23 -35 23 -9 0 -17 6 -98 78 -30 26 -75 61 -100
76 -25 16 -75 58 -111 95 -37 36 -81 80 -98 96 -64 61 -221 228 -221 235 0 4
-30 38 -67 77 -38 39 -80 86 -95 104 -15 19 -48 57 -73 84 -25 28 -78 93 -118
145 -39 52 -82 106 -95 120 -13 14 -30 39 -38 57 -12 28 -51 91 -72 118 -32
40 -55 80 -67 116 -9 24 -22 50 -29 59 -8 8 -18 32 -21 53 -9 48 7 80 49 102
17 9 65 40 106 70 41 30 89 61 107 69 17 8 56 30 87 50 31 20 63 36 71 36 8 0
26 11 41 25 15 14 31 25 36 25 6 0 22 8 36 19 15 10 41 22 59 25 17 4 37 14
43 21 7 8 28 17 49 21 20 4 47 15 60 25 13 11 32 19 42 19 23 0 69 21 69 31 0
5 19 13 42 20 23 6 51 17 62 25 11 8 32 14 46 14 14 0 43 9 64 20 21 10 59 22
85 26 25 3 60 15 77 25 17 11 42 19 55 19 13 0 43 9 67 20 24 11 73 23 110 26
37 4 93 15 126 25 34 11 88 19 130 19 41 0 107 9 151 21 127 33 624 47 990 28z
m-3145 -1559 c28 -11 61 -20 74 -20 13 0 29 -7 36 -14 6 -8 28 -20 48 -27 20
-6 49 -20 64 -30 14 -11 30 -19 35 -19 4 0 42 -30 84 -67 42 -38 103 -88 135
-113 32 -25 90 -76 130 -115 84 -83 193 -180 278 -250 64 -53 88 -74 227 -209
47 -46 99 -91 116 -99 16 -9 42 -32 57 -52 15 -19 55 -58 89 -86 34 -28 114
-100 177 -160 119 -113 176 -159 195 -159 7 0 20 -9 30 -20 10 -11 23 -20 29
-20 12 0 76 -42 136 -91 25 -20 57 -42 71 -50 51 -27 159 -102 159 -110 0 -5
15 -16 33 -24 54 -27 97 -52 116 -69 10 -9 21 -16 26 -16 4 0 23 -11 41 -25
18 -14 39 -25 47 -25 8 0 22 -8 31 -19 9 -10 32 -21 52 -24 19 -3 47 -15 63
-26 16 -12 38 -21 49 -21 10 0 31 -9 45 -20 14 -11 35 -20 46 -20 12 0 30 -9
41 -20 12 -12 41 -24 65 -29 24 -5 55 -15 67 -23 13 -8 43 -18 68 -22 25 -4
58 -13 73 -21 15 -8 45 -17 65 -21 20 -3 51 -14 67 -24 17 -10 61 -20 98 -24
38 -4 88 -14 110 -22 23 -8 107 -19 187 -25 188 -12 361 -36 390 -54 24 -15
73 -104 78 -141 4 -34 -1 -52 -28 -96 -31 -52 -37 -56 -102 -77 -58 -19 -105
-24 -301 -32 -134 -5 -261 -15 -302 -24 -75 -16 -528 -39 -795 -39 -234 0
-569 21 -612 38 -20 9 -88 20 -152 25 -64 5 -123 14 -130 20 -7 6 -53 16 -102
22 -49 6 -101 17 -116 25 -15 8 -36 14 -46 14 -10 0 -39 11 -63 23 -24 13 -60
27 -80 31 -19 3 -53 15 -74 26 -22 11 -51 20 -66 20 -14 0 -36 9 -49 20 -13
11 -31 20 -41 20 -18 0 -130 56 -139 69 -3 5 -18 16 -35 25 -16 10 -48 28 -70
41 -22 13 -56 33 -77 44 -20 11 -38 24 -40 28 -1 5 -32 33 -68 63 -35 30 -74
67 -86 81 -13 14 -53 56 -90 94 -37 38 -72 81 -78 95 -21 44 -58 100 -67 100
-5 0 -15 12 -21 28 -7 15 -17 34 -24 42 -6 8 -17 32 -23 52 -7 20 -19 42 -27
48 -8 7 -17 30 -20 51 -4 21 -13 44 -20 50 -8 6 -14 19 -14 28 0 9 -14 43 -30
76 -16 33 -30 67 -30 75 0 9 -9 33 -20 55 -11 22 -20 59 -20 85 0 25 -7 59
-16 75 -9 17 -20 77 -26 135 -6 58 -17 118 -25 134 -10 20 -18 81 -24 185 -5
86 -13 189 -19 229 -21 155 -9 389 23 430 14 18 59 15 117 -8z m-3109 -3380
c24 -11 64 -20 89 -20 26 0 58 -8 75 -18 17 -11 47 -22 67 -26 20 -3 47 -15
61 -26 14 -11 33 -20 42 -20 9 0 33 -9 53 -20 20 -10 69 -34 107 -51 39 -18
102 -59 141 -93 38 -34 83 -70 98 -81 16 -11 43 -36 60 -55 17 -19 42 -43 55
-55 22 -19 81 -76 146 -143 17 -17 57 -57 90 -90 33 -32 130 -132 215 -222 85
-89 184 -193 220 -229 36 -37 71 -79 79 -94 8 -14 32 -45 53 -69 22 -24 65
-71 96 -106 31 -35 74 -82 96 -105 21 -22 45 -52 54 -66 9 -15 48 -63 87 -109
38 -46 89 -109 112 -140 23 -31 70 -88 105 -126 34 -37 68 -80 74 -95 6 -14
28 -42 48 -61 21 -19 62 -68 92 -108 30 -40 62 -80 72 -90 9 -10 44 -49 77
-87 187 -215 563 -590 725 -723 73 -60 83 -68 162 -134 31 -27 61 -48 67 -48
5 0 33 -19 63 -42 68 -55 117 -88 128 -88 4 0 32 -20 62 -44 29 -23 64 -47 78
-51 14 -4 34 -15 45 -25 11 -10 35 -21 53 -25 17 -3 32 -11 32 -15 0 -5 18
-14 40 -20 23 -6 62 -22 87 -35 25 -14 52 -25 60 -25 8 0 23 -9 35 -20 12 -11
32 -20 45 -20 13 0 40 -7 61 -16 20 -8 64 -20 97 -25 33 -6 89 -19 125 -30 60
-19 103 -21 570 -27 1057 -14 1793 -2 1905 31 28 8 102 20 165 26 63 6 133 17
155 25 22 8 65 15 95 16 35 0 70 7 94 20 22 10 73 24 114 30 41 6 81 15 87 20
7 6 61 15 121 20 60 6 127 17 149 25 22 8 81 18 132 24 51 5 102 15 113 21 11
6 60 15 108 21 47 5 96 16 108 24 11 7 47 18 79 24 32 6 63 15 70 21 6 5 47
15 91 21 43 7 88 18 99 25 11 6 40 15 65 19 83 13 169 84 194 161 16 48 16 57
1 119 -8 36 -15 87 -15 113 0 27 -8 63 -18 82 -11 19 -22 57 -25 83 -4 27 -16
60 -27 74 -11 14 -20 35 -20 45 0 17 -34 63 -114 158 -54 63 -151 108 -263
121 -116 13 -1375 -7 -1648 -26 -262 -19 -496 -19 -561 -1 -27 8 -76 18 -109
21 -33 4 -79 16 -102 26 -23 11 -48 19 -56 19 -8 0 -25 8 -38 19 -13 10 -35
22 -48 26 -14 4 -45 18 -69 31 -25 13 -51 24 -57 24 -7 0 -18 6 -24 14 -7 8
-25 17 -40 21 -16 3 -44 17 -62 31 -63 46 -180 168 -186 193 -3 14 -13 35 -23
46 -9 11 -22 39 -29 63 -6 23 -16 42 -21 42 -5 0 -12 21 -15 48 -4 26 -16 71
-28 99 -27 68 -16 99 40 109 21 4 56 15 78 25 24 11 64 19 98 19 33 0 82 9
115 21 47 17 95 22 272 30 118 5 298 13 400 19 102 6 410 14 685 19 275 5 541
14 590 20 335 40 2243 41 2442 1 26 -5 113 -12 193 -16 93 -3 168 -12 210 -24
36 -10 82 -21 104 -25 21 -3 55 -15 75 -26 20 -10 45 -19 56 -19 11 0 31 -7
44 -16 13 -9 41 -21 62 -25 22 -5 62 -26 91 -46 53 -39 86 -58 154 -91 23 -11
45 -25 48 -31 4 -6 16 -11 26 -11 10 0 43 -20 73 -45 31 -25 60 -45 65 -45 5
0 20 -8 33 -19 13 -10 51 -32 83 -50 51 -27 85 -51 188 -136 9 -7 27 -19 40
-26 12 -7 48 -38 79 -68 31 -31 79 -72 107 -91 29 -19 54 -42 57 -50 3 -9 33
-45 68 -81 70 -73 117 -130 117 -142 0 -5 11 -23 25 -41 14 -18 25 -38 25 -43
0 -6 6 -13 14 -16 8 -3 20 -17 28 -30 41 -76 54 -96 89 -138 22 -26 39 -52 39
-57 0 -6 20 -30 45 -53 25 -23 45 -48 45 -54 0 -7 29 -43 65 -81 36 -38 68
-80 72 -94 3 -14 15 -36 25 -50 34 -45 68 -101 68 -112 0 -6 9 -25 19 -42 44
-71 44 -264 0 -328 -11 -14 -19 -41 -19 -60 0 -18 -10 -53 -21 -78 -11 -25
-23 -67 -26 -95 -3 -27 -14 -64 -24 -81 -11 -17 -19 -46 -19 -63 0 -18 -8 -51
-19 -74 -10 -23 -22 -58 -26 -77 -4 -19 -14 -43 -23 -52 -8 -10 -19 -41 -23
-69 -5 -28 -15 -59 -23 -68 -7 -9 -17 -41 -21 -71 -4 -30 -15 -71 -25 -90 -9
-19 -20 -50 -24 -69 -3 -19 -13 -42 -21 -51 -8 -9 -18 -39 -21 -66 -4 -27 -15
-66 -25 -86 -11 -21 -19 -51 -19 -68 0 -17 -9 -52 -20 -78 -11 -26 -24 -75
-29 -109 -5 -34 -17 -75 -25 -92 -9 -16 -16 -45 -16 -63 0 -18 -9 -47 -19 -65
-11 -17 -24 -64 -30 -105 -6 -40 -17 -90 -26 -110 -8 -21 -15 -59 -15 -86 0
-53 -25 -101 -70 -133 -32 -22 -211 -34 -735 -50 -424 -13 -1734 -5 -1875 11
-47 5 -326 14 -620 19 -303 6 -615 17 -720 26 -102 8 -340 18 -530 21 -219 4
-385 11 -455 21 -60 8 -218 19 -350 23 -145 5 -271 14 -318 24 -43 8 -131 18
-195 21 -64 4 -146 15 -182 25 -40 11 -114 20 -195 23 -78 3 -148 11 -175 20
-25 9 -97 19 -160 22 -63 4 -148 16 -189 26 -41 10 -94 19 -118 19 -23 0 -66
9 -95 19 -29 11 -94 24 -145 30 -50 5 -105 17 -122 25 -16 9 -52 16 -78 16
-28 0 -65 8 -86 19 -21 11 -61 22 -90 26 -29 4 -69 16 -89 26 -21 11 -48 19
-61 19 -13 0 -32 8 -43 18 -18 16 -40 25 -169 72 -27 10 -63 25 -80 34 -16 9
-36 16 -44 16 -15 0 -105 54 -129 77 -7 7 -21 13 -30 13 -9 0 -43 18 -75 40
-31 22 -61 40 -66 40 -5 0 -32 19 -61 42 -29 23 -65 49 -80 57 -62 36 -131 84
-143 100 -6 10 -22 23 -35 30 -13 7 -33 21 -45 32 -57 50 -176 162 -255 242
-48 48 -93 87 -99 87 -13 0 -256 235 -625 605 -316 316 -403 408 -418 436 -6
10 -47 56 -93 102 -45 47 -122 129 -172 182 -49 54 -110 118 -133 144 -24 25
-50 58 -58 73 -8 15 -50 64 -94 110 -44 46 -80 86 -80 89 0 9 -93 127 -143
180 -96 104 -119 129 -172 194 -30 37 -55 70 -55 74 0 4 -29 38 -65 76 -35 39
-65 75 -65 81 0 6 -9 19 -20 29 -11 10 -20 23 -20 29 0 6 -30 42 -65 79 -36
38 -68 79 -71 93 -4 13 -14 30 -23 37 -24 18 -105 118 -119 147 -7 14 -27 45
-46 70 -19 25 -35 50 -35 57 -1 6 -21 33 -46 60 -25 26 -45 52 -45 57 0 11
-67 113 -80 121 -6 3 -10 15 -10 26 0 12 -20 45 -45 73 -25 29 -45 60 -45 68
0 8 -11 29 -25 48 -14 19 -25 39 -25 46 0 7 -6 19 -12 26 -33 34 -68 88 -74
114 -4 16 -15 39 -25 52 -10 13 -20 36 -24 52 -3 16 -13 34 -21 41 -8 6 -14
19 -14 29 0 9 -13 37 -30 61 -16 24 -30 49 -30 55 0 6 -6 17 -14 23 -8 7 -17
28 -21 49 -4 20 -15 51 -25 67 -9 17 -20 46 -24 67 -4 20 -13 39 -21 42 -8 3
-15 11 -15 19 0 7 -9 31 -20 52 -12 22 -26 59 -32 83 -6 24 -19 59 -29 80 -19
35 -25 114 -13 146 10 25 148 22 205 -4z"/>
<path d="M13379 4736 c-653 -116 -1220 -675 -1467 -1447 -39 -122 -68 -250
-94 -414 -18 -121 -16 -469 5 -581 88 -477 358 -737 827 -794 148 -18 157 -16
254 45 237 148 531 430 779 745 71 89 73 100 37 147 l-17 22 -69 -63 c-333
-301 -647 -518 -873 -603 -55 -21 -68 -22 -100 -12 -124 41 -218 166 -273 364
-20 73 -22 103 -23 330 0 309 22 464 107 738 109 356 337 777 560 1035 266
309 654 460 807 314 47 -45 60 -103 41 -184 -26 -109 -124 -257 -238 -360 -29
-25 -52 -54 -52 -65 0 -62 101 -192 177 -228 83 -40 87 -39 150 25 119 120
222 327 242 484 30 246 -85 416 -329 486 -96 28 -336 36 -451 16z"/>
<path d="M14861 4438 c-54 -165 -91 -341 -91 -428 0 -25 10 -65 21 -90 14 -30
21 -62 20 -96 -2 -45 1 -55 28 -81 26 -26 78 -51 86 -41 1 2 17 26 35 53 77
114 235 308 348 427 76 79 76 78 -43 174 -105 85 -287 173 -357 174 -12 0 -24
-25 -47 -92z"/>
<path d="M15963 4198 c-97 -103 -261 -349 -368 -550 l-54 -103 -138 7 c-76 4
-160 9 -187 12 l-49 5 6 -72 c6 -72 21 -131 40 -154 6 -9 43 -13 118 -13 60 0
109 -2 109 -5 0 -2 -18 -51 -41 -107 -67 -169 -185 -532 -228 -704 -53 -212
-72 -329 -74 -439 -2 -78 1 -96 22 -135 85 -159 301 -296 498 -315 66 -7 70
-6 148 35 160 85 325 213 325 255 0 44 -25 50 -72 17 -90 -61 -183 -99 -310
-126 -63 -13 -71 -12 -107 6 -63 31 -83 83 -82 211 2 278 135 730 347 1179
l69 147 40 5 c22 2 87 10 145 16 98 10 181 27 258 51 36 12 40 30 17 85 l-14
34 -166 -6 c-91 -4 -165 -3 -165 1 0 18 193 316 284 440 53 71 96 133 96 137
0 16 -170 88 -264 113 -138 35 -144 35 -203 -27z"/>
<path d="M17357 4180 c-82 -89 -228 -305 -333 -495 -42 -77 -78 -140 -78 -141
-1 0 -84 5 -184 10 -101 6 -185 9 -187 6 -6 -12 16 -149 31 -187 l16 -43 115
0 c106 0 115 -1 108 -17 -152 -368 -304 -887 -336 -1146 -21 -175 -1 -239 110
-347 103 -101 273 -182 406 -196 60 -6 68 -4 137 31 145 73 338 220 338 256 0
8 -6 23 -13 33 -12 17 -17 16 -73 -20 -81 -52 -178 -91 -279 -113 l-85 -19
-42 22 c-66 33 -83 77 -82 206 4 284 145 762 356 1201 67 141 64 139 179 139
61 0 208 25 292 50 75 23 80 32 50 95 l-17 35 -163 -6 c-108 -5 -163 -4 -163
3 0 25 208 342 333 508 52 68 51 73 -22 110 -64 32 -230 84 -294 91 l-53 6
-67 -72z"/>
<path d="M18651 3614 c-167 -45 -384 -230 -566 -484 -89 -124 -229 -396 -272
-530 -112 -342 -89 -639 61 -793 123 -126 252 -117 436 30 181 145 377 402
518 678 37 71 39 69 12 -11 -116 -334 -132 -608 -43 -715 34 -40 96 -69 148
-69 55 0 165 25 219 49 l45 19 -33 35 c-49 52 -61 108 -60 282 0 124 5 170 27
265 53 233 123 439 253 736 43 100 72 178 68 187 -15 39 -185 117 -256 117
-32 0 -35 -3 -87 -107 -139 -281 -378 -700 -512 -898 -166 -246 -279 -369
-392 -426 -88 -45 -117 -21 -117 100 0 275 206 687 477 953 104 102 143 134
238 193 66 41 175 85 211 85 13 0 15 6 10 30 -19 100 -224 292 -307 289 -13 0
-48 -7 -78 -15z"/>
<path d="M20531 3614 c-226 -61 -523 -364 -710 -724 -170 -328 -232 -610 -185
-837 41 -201 160 -332 303 -335 195 -5 530 341 770 797 18 33 30 52 27 43 -3
-9 -21 -67 -40 -129 -94 -296 -101 -542 -19 -640 34 -40 96 -69 148 -69 55 0
165 25 219 49 l45 19 -32 35 c-46 48 -58 94 -64 232 -5 130 7 229 52 407 50
198 157 490 264 722 24 51 39 97 36 107 -13 40 -184 119 -257 119 -32 0 -35
-3 -87 -107 -139 -281 -378 -700 -512 -898 -166 -246 -279 -369 -392 -426 -88
-45 -117 -21 -117 100 0 358 325 891 689 1129 79 52 193 101 235 102 15 0 17
5 12 30 -19 100 -224 292 -307 289 -13 0 -48 -7 -78 -15z"/>
<path d="M14500 3432 c-68 -46 -136 -137 -204 -277 -68 -138 -103 -249 -155
-490 -74 -349 -93 -465 -95 -575 -1 -93 2 -110 23 -153 31 -60 121 -147 189
-181 85 -43 88 -41 96 72 3 53 15 134 26 179 18 76 179 526 251 703 63 156
173 345 260 451 l38 46 -45 51 c-51 58 -141 126 -224 167 -92 47 -99 47 -160
7z"/>
</g>
</svg>
